<svg width="15" height="14" viewBox="0 0 15 14" fill="none" xmlns="http://www.w3.org/2000/svg">
<path d="M7.5 0C3.36563 0 0 2.67711 0 5.96719C0 8.91396 2.66875 11.3829 6.27187 11.8522C6.51625 11.9027 6.84875 12.0105 6.93313 12.2138C7.00813 12.3982 6.9825 12.6831 6.95687 12.8754L6.85437 13.5C6.82625 13.6844 6.70437 14.2262 7.51 13.895C8.31687 13.5651 11.8325 11.3969 13.4075 9.6225C14.485 8.46595 15 7.28079 15 5.96719C15 2.67711 11.6344 0 7.5 0ZM4.56437 7.92359H3.07312C2.8575 7.92359 2.67938 7.74889 2.67938 7.53827V4.61585C2.67938 4.40463 2.8575 4.22993 3.07312 4.22993C3.29062 4.22993 3.46688 4.40463 3.46688 4.61585V7.15235H4.56437C4.78188 7.15235 4.9575 7.32583 4.9575 7.53827C4.9575 7.74889 4.78125 7.92359 4.56437 7.92359ZM6.10563 7.53827C6.10563 7.74889 5.92937 7.92359 5.71125 7.92359C5.49562 7.92359 5.31938 7.74889 5.31938 7.53827V4.61585C5.31938 4.40463 5.49563 4.22993 5.71312 4.22993C5.92937 4.22993 6.10563 4.40463 6.10563 4.61585V7.53827ZM9.69375 7.53827C9.69375 7.70384 9.585 7.85054 9.42375 7.9035C9.38375 7.91628 9.34062 7.92237 9.29937 7.92237C9.1675 7.92237 9.055 7.86698 8.98063 7.76897L7.45375 5.7371V7.53766C7.45375 7.74828 7.27938 7.92298 7.05937 7.92298C6.84312 7.92298 6.66812 7.74828 6.66812 7.53766V4.61585C6.66812 4.45028 6.77625 4.30359 6.93687 4.25124C6.97437 4.23724 7.02187 4.23115 7.05813 4.23115C7.18 4.23115 7.2925 4.29506 7.3675 4.38698L8.90625 6.42677V4.61585C8.90625 4.40463 9.0825 4.22993 9.3 4.22993C9.51562 4.22993 9.69375 4.40463 9.69375 4.61585V7.53827ZM12.1031 5.69084C12.3212 5.69084 12.4969 5.86554 12.4969 6.07737C12.4969 6.28859 12.3212 6.46329 12.1031 6.46329H11.0063V7.15235H12.1031C12.3212 7.15235 12.4969 7.32583 12.4969 7.53827C12.4969 7.74889 12.3212 7.92359 12.1031 7.92359H10.6119C10.3962 7.92359 10.22 7.74889 10.22 7.53827V4.61585C10.22 4.40463 10.3962 4.22993 10.6138 4.22993H12.105C12.3212 4.22993 12.4969 4.40463 12.4969 4.61585C12.4969 4.82951 12.3212 5.00178 12.1031 5.00178H11.0063V5.69084H12.1031Z" fill="white"/>
</svg>
