<svg width="320" height="90" viewBox="0 0 320 90" fill="none" xmlns="http://www.w3.org/2000/svg">
<path fill-rule="evenodd" clip-rule="evenodd" d="M59.2809 84.8623C58.727 84.9728 58.1587 85.0175 57.5943 85.0662C57.5312 85.0715 57.3812 84.8952 57.397 84.8557C57.4601 84.7044 57.547 84.54 57.6732 84.4426C58.4218 83.8585 59.2361 83.3481 59.9294 82.7074C61.2634 81.4761 62.5303 80.171 63.2354 78.4437C63.3038 78.2766 63.3183 78.0885 63.3591 77.9096C63.1736 77.899 60.3136 78.5608 58.9809 78.5595C58.2021 78.5595 54.9921 80.021 54.6238 80.3144C54.241 80.6196 53.941 81.0367 53.6345 81.4287C53.3569 81.7839 53.0438 81.7365 52.7991 81.4747C52.39 81.0367 49.6812 78.9252 49.4747 77.8451C49.451 77.7201 49.4971 77.5031 49.5852 77.4504C50.0654 77.1597 50.7153 73.4564 50.5837 73.1183C50.4206 72.6986 50.1417 72.1816 49.4642 72.1672C49.0616 72.158 46.9607 71.929 46.3213 71.8685C45.8727 71.8264 45.4096 71.6107 45.0176 71.3686C44.5979 71.1108 44.4045 69.5926 44.415 69.4611C44.5663 67.568 45.4925 65.9801 46.3739 64.3712C46.741 63.7015 47.0685 63.0082 47.4619 62.3544C47.6618 62.0242 47.9789 61.7664 48.2262 61.4625C49.7417 59.6036 51.2388 57.7289 52.7702 55.8832C53.3082 55.2346 53.9305 54.6544 54.5106 54.0388C54.9514 53.5717 55.3868 53.0981 55.8249 52.6272C55.8104 52.5548 55.7959 52.4811 55.7815 52.4075C55.1882 52.3943 54.5962 52.3785 54.0028 52.3667C53.2911 52.3535 52.5544 52.4509 51.8769 52.293C51.4993 52.2049 51.1086 51.751 50.9205 51.3655C50.585 50.6801 50.3469 49.9342 50.168 49.1896C50.0483 48.6897 50.0825 48.1477 50.0838 47.6254C50.0838 46.8755 50.1048 46.1257 50.1456 45.3771C50.1561 45.1706 50.2127 44.918 50.3443 44.7772C50.8573 44.2234 51.4138 43.709 51.9466 43.1723C52.3808 42.7355 52.7991 42.2829 53.2398 41.8514C53.4069 41.687 53.6345 41.5844 53.7989 41.4186C54.2515 40.9608 54.708 40.503 55.1132 40.0057C55.2421 39.8478 55.2618 39.5624 55.2526 39.3387C55.2395 39.0204 54.6646 38.3152 54.4528 38.381C53.6739 38.6244 52.7281 38.0771 52.4307 37.9982C52.1229 37.9166 51.8243 37.6864 51.6046 37.4456C51.4928 37.3233 50.4653 36.1735 49.6747 36.5708C49.1497 36.8339 47.2067 37.4325 46.6449 37.1865C46.5568 37.147 39.1831 51.6444 39.2002 51.6984C39.5199 52.7035 38.8081 53.3415 38.374 54.0835C38.1885 54.4005 35.9218 58.1288 36.0139 59.0011C36.1297 60.0995 36.1283 61.2099 36.2112 62.3136C36.2612 62.9793 36.3928 63.6384 36.4493 64.3027C36.5375 65.346 36.2494 66.305 35.8442 67.2667C35.4548 68.1915 35.1811 69.1743 34.9443 70.153C34.6931 71.1844 33.9103 73.5972 33.9564 73.6314C33.6959 74.0392 30.328 80.6591 30.1044 81.0498C29.7676 81.6379 29.3453 82.1799 28.9283 82.7192C28.5731 83.181 28.11 83.1744 27.6351 82.9061C26.6484 82.3483 25.6618 81.7918 24.6817 81.2195C24.216 80.9485 23.7174 80.7012 23.324 80.3434C22.2005 79.3185 21.1402 78.224 20.022 77.1926C19.2668 76.4967 18.3973 76.0191 17.383 75.7113C16.0069 75.2942 14.6913 74.6825 13.3495 74.1537C11.8234 73.5524 10.3197 72.8986 9.02916 71.8633C8.45163 71.4002 7.93067 70.8674 7.38471 70.3662C7.15975 70.1596 3.35516 65.6946 2.77499 65.2855C2.41848 65.0329 2.02776 64.7632 1.61467 64.6685C0.660892 64.4501 -0.223163 63.3135 0.0504728 62.3847C0.487238 60.9033 1.02004 59.451 1.51732 57.9868C1.70545 57.4316 1.84358 56.8488 2.10932 56.3318C2.88155 54.8268 3.65642 53.3192 4.52732 51.8707C5.28508 50.6104 6.15203 49.4119 7.01504 48.2174C8.1872 46.5966 9.41199 45.014 10.596 43.4012C11.7155 41.8764 12.7403 40.2767 13.9401 38.8191C14.8452 37.7193 15.97 36.8023 16.9791 35.7854C17.7132 35.0447 18.4157 34.2725 19.1326 33.5161C19.3392 33.2977 19.5523 33.0845 19.7562 32.8635C19.9878 32.6123 20.4206 32.336 20.3982 32.1045C20.3522 31.6295 20.0351 31.1862 19.8786 30.7139C19.3734 29.1892 17.6697 24.7347 17.9118 22.6798C18.1539 20.6236 25.6447 7.52851 26.2827 6.76943C26.459 6.56026 26.5603 6.29189 26.7089 6.05903C26.9208 5.72883 27.1418 5.4052 27.3654 5.0842C27.3996 5.03421 27.4943 5.02369 27.5233 4.97238C28.2232 3.7647 29.5137 2.97931 29.8939 1.52562C30.0505 0.928354 30.6622 0.842843 31.1687 1.23619C31.9225 1.82162 32.6684 2.41625 33.4117 3.01483C33.5288 3.10955 33.6262 3.23584 33.7077 3.36345C34.8273 5.09867 35.9494 6.8339 37.0584 8.5757C37.6504 9.5058 38.032 10.5161 38.2188 11.6107C38.3569 12.4184 38.5503 13.2196 38.7779 14.0063C39.1975 15.4561 38.4543 17.2992 37.1611 18.2279C36.2204 18.9041 35.3811 19.7198 34.4892 20.4657C34.3629 20.571 25.4473 27.4474 24.9619 27.9776C24.8014 28.1538 23.6082 28.8274 23.299 29.1102C23.2359 29.1681 23.3174 29.3826 23.3319 29.5246C23.4714 29.501 23.6305 29.5154 23.745 29.4497C24.6804 28.9155 25.6078 28.3656 26.5379 27.821C26.6695 27.7434 26.8024 27.6684 26.9326 27.5895C27.1997 27.4276 27.4483 27.1645 27.7325 27.1159C28.7415 26.9475 29.7176 27.1409 30.6464 27.5592C31.6476 28.0104 32.6566 28.4472 33.6367 28.9405C34.1866 29.2168 34.797 29.4997 35.1838 29.9496C36.0981 31.0152 36.7769 32.1571 36.9374 33.6858C37.0361 34.6185 37.1045 35.5591 37.14 36.4958C37.1532 36.8418 36.9821 37.1944 36.9111 37.5456C36.8335 37.9232 36.7901 38.3086 36.7046 38.6849C36.5914 39.1808 33.4091 43.2538 33.0381 43.8011C32.8552 44.0708 32.3224 44.8009 32.2054 44.9417C32.062 45.1166 32.0238 45.4574 32.0738 45.6981C32.2856 46.7427 33.0394 47.511 33.5499 48.4029C33.7432 48.741 34.0629 48.7805 34.4063 48.4134C34.7273 48.0688 45.5517 36.2024 45.5385 35.7907C45.532 35.5749 45.6056 35.3565 45.6083 35.1395C45.6122 34.8698 45.6688 34.5474 45.5477 34.3383C45.0715 33.5121 44.5032 32.7412 44.0296 31.9137C43.5428 31.0612 43.0324 30.2008 42.7075 29.2813C42.3404 28.2433 42.1668 27.1382 41.9129 26.0608C41.5721 24.615 41.1169 23.1837 40.9367 21.7194C40.7973 20.5788 40.9643 19.3922 41.0854 18.2358C41.1143 17.9569 41.4616 17.586 41.7366 17.5004C41.9471 17.436 42.3496 17.6925 42.5417 17.9135C43.6376 19.1844 44.7321 20.4618 45.7451 21.7997C46.0319 22.1786 46.1055 22.7561 46.17 23.2573C46.2476 23.8559 46.3213 24.4176 46.8791 24.7847C46.9567 24.7426 47.033 24.7268 47.0659 24.6808C47.7289 23.7507 48.3828 22.8127 49.0498 21.8839C49.2603 21.5918 49.4944 21.3156 49.7312 21.0446C50.4087 20.2644 51.1099 19.504 51.7717 18.7108C52.2282 18.1635 52.6412 17.5781 53.0648 17.0032C53.4069 16.5388 55.3565 14.3392 55.7512 13.8998C56.8076 12.7237 57.9982 11.7238 59.3624 10.9358C60.6543 10.1899 61.9107 9.32951 63.2894 8.79934C64.747 8.23891 66.3125 8.13893 67.907 8.51913C69.9356 9.00194 71.5971 10.0873 73.0929 11.441C73.7362 12.0225 74.1809 12.8249 74.7097 13.5301C75.011 13.9313 75.357 14.3128 75.5872 14.7522C76.3923 16.2888 76.9633 17.9227 76.9843 19.6619C76.9922 20.3131 76.5686 20.9696 76.3463 21.6247C76.024 22.5772 75.2978 23.1955 74.5861 23.8441C73.9322 24.44 72.5522 26.4015 72.3404 26.5936C71.7392 27.1422 71.0814 27.6289 70.4328 28.1223C69.8895 28.5353 69.333 28.934 68.77 29.3194C68.6029 29.4339 63.1815 32.5031 62.9644 32.7872C63.4117 33.2319 63.8998 33.7989 64.4707 34.2659C65.3482 34.9829 65.3114 36.1498 65.9086 36.9957C65.9652 37.076 65.9652 37.2075 65.9626 37.3154C65.935 38.6638 65.6258 39.9202 64.7233 40.9713C63.8643 41.9711 63.0013 42.9657 62.1396 43.9616C61.4502 44.7588 60.7464 45.5429 60.0755 46.3559C59.4506 47.1123 58.8599 47.8991 58.1324 48.8278C58.7796 49.0817 59.2453 49.283 59.7268 49.4383C59.8373 49.4738 60.0228 49.3791 60.1333 49.2935C61.1726 48.4911 62.1685 47.6254 63.2552 46.894C63.6511 46.6269 64.2734 46.5493 64.7667 46.6059C65.5995 46.7006 67.4518 46.9045 67.5268 46.9387C69.1923 47.6833 70.817 48.4384 72.2273 49.6908C72.8574 50.25 74.1769 52.0325 74.4085 52.3614C74.6321 52.6772 74.8005 53.0718 74.8623 53.4533C75.0518 54.6255 75.1912 55.8069 75.3215 56.9882C75.3478 57.229 75.3083 57.5118 75.2017 57.7276C74.7439 58.6616 72.9311 61.9282 72.8535 62.8609C72.7982 63.52 67.5557 70.2912 67.1032 70.7556C67.7162 71.0029 68.1188 71.1608 68.5187 71.3252C69.9277 71.908 71.3708 72.4224 72.7298 73.1052C73.527 73.5064 74.2887 74.0905 74.4808 75.0995C74.5045 75.2258 74.5505 75.3692 74.6361 75.4587C75.407 76.2664 75.353 77.3662 75.6569 78.3358C75.7569 78.6568 75.1386 79.6053 74.7781 79.7211C74.3032 79.8737 72.789 80.0526 72.5167 80.0592C72.1273 80.0671 71.6642 79.9947 71.3643 80.175C70.7578 80.5394 59.5558 84.8044 59.2822 84.8597L59.2809 84.8623ZM17.012 51.4471C17.5277 50.592 18.0894 49.7619 18.6775 48.9541C19.4181 47.9359 23.5516 40.7543 23.7805 40.1517C24.0397 39.469 24.3488 38.6165 24.1502 37.9929C23.8805 37.1483 23.1543 36.4458 22.611 35.692C22.29 35.2447 21.9637 35.3986 21.6217 35.6986C20.6863 36.5168 19.7023 37.2838 18.8038 38.1416C14.2703 41.0424 7.16107 52.2785 6.00074 53.9559C4.79175 55.7016 4.01557 57.5145 3.84191 59.5904C3.76561 60.5061 3.88138 61.4375 3.88796 62.361C3.89585 63.3792 4.33788 64.1449 5.14695 64.7435C5.51399 65.0145 5.82972 65.3565 6.16914 65.667C7.88068 67.2325 9.56591 68.8559 11.6669 69.8847C13.6533 70.8569 15.7148 71.6738 17.7513 72.5395C18.6972 72.9407 19.6654 73.288 20.6179 73.6708C21.9743 74.2155 23.3227 74.7838 24.6843 75.3153C25.0316 75.4508 25.4052 75.5587 25.4763 74.9325C25.7249 72.7592 25.4236 70.5924 25.4355 68.3586C25.125 68.3586 24.7014 68.2284 24.512 68.3836C23.9844 68.8138 18.5485 70.8911 17.771 70.8871C17.0672 70.8845 15.353 70.8266 15.2057 70.7963C12.7851 70.307 11.3919 68.2678 10.8538 66.5431C10.8473 66.5221 10.8486 66.4997 10.8446 66.4787C10.6065 65.1592 11.6234 60.018 11.7879 59.6036C12.0299 58.9892 12.2641 58.3446 12.6469 57.8184C13.3837 56.808 16.5765 52.168 17.0093 51.4497L17.012 51.4471ZM66.4125 12.3382C66.002 12.2619 65.8389 12.2329 65.6758 12.2027C64.576 12.0001 57.9469 14.8391 56.9102 15.3877C55.4184 16.177 50.5074 23.1771 49.6589 25.086C49.3997 25.6687 49.2708 26.2423 49.551 26.9119C49.747 27.3803 49.6865 27.9591 49.7246 28.4893C49.7562 28.9208 49.7628 29.3536 49.7891 29.968C50.1219 29.6601 57.5693 22.6982 57.9587 22.2075C58.3587 21.705 65.5969 13.4143 66.4112 12.3369L66.4125 12.3382ZM59.3111 56.3318C59.0993 56.4212 58.9467 56.4397 58.8704 56.5265C58.2389 57.2395 57.5785 57.9341 57.0102 58.6945C55.3684 60.8876 53.8792 63.1766 52.7412 65.6828C52.4307 66.3655 52.1518 66.9944 52.3334 67.7811C52.4347 68.2231 52.5899 68.3902 53.0214 68.331C54.041 68.1902 54.8185 67.6087 55.5605 66.9562C56.7773 65.8867 57.3115 64.3738 58.0995 63.0267C58.3521 62.5952 58.6389 62.1426 58.7283 61.6651C59.0256 60.0798 59.2453 58.4814 59.4756 56.8843C59.4979 56.7343 59.3848 56.5646 59.3111 56.3318ZM64.3063 51.9944C65.243 52.9824 66.0718 53.8559 66.8887 54.7163C67.5413 53.6323 67.6768 52.3404 67.7504 51.0393C67.7715 50.667 67.5228 50.3144 67.1374 50.4946C66.1494 50.9564 65.2048 51.5103 64.3063 51.9931V51.9944ZM25.6789 36.3958C26.1419 35.5289 27.7719 32.4676 27.6048 32.1242C27.5509 32.0124 27.1036 31.9703 26.9221 32.0637C25.8907 32.5873 24.8843 33.1622 23.7358 33.7936C24.4054 34.6908 24.9816 35.4618 25.6802 36.3971L25.6789 36.3958ZM26.1512 53.4349C25.3737 53.4218 24.7461 54.0032 24.5238 54.7807C24.4396 55.0754 24.1989 55.3346 23.9976 55.5832C23.7595 55.8779 23.4885 56.145 23.2306 56.4239C23.2859 56.4923 23.3411 56.5594 23.3964 56.6278C23.8687 56.3699 24.3554 56.1344 24.8106 55.8477C25.1829 55.6135 25.5328 55.3372 25.8591 55.0425C26.0012 54.9136 26.1143 54.6979 26.1393 54.5084C26.184 54.1703 26.1525 53.823 26.1525 53.4349H26.1512Z" fill="white"/>
<path fill-rule="evenodd" clip-rule="evenodd" d="M160.132 57.649C157.907 69.9613 152.449 71.1795 151.738 71.469C150.896 71.8123 150.041 72.1281 149.232 72.5359C148.903 72.7016 148.69 73.0858 148.407 73.3555C148.173 73.5791 147.917 73.7778 147.498 74.1316C147.44 73.1634 146.876 73.12 146.329 72.8674C145.614 72.5385 145.028 71.8623 144.483 71.2493C143.687 70.352 142.975 69.3772 142.231 68.434C141.973 68.1077 141.711 68.1156 141.39 68.3629C139.494 69.8219 137.625 71.3203 135.678 72.7095C133.98 73.9198 132.204 75.0249 130.246 75.7985C129.741 75.9984 129.27 76.2813 128.762 76.472C128.591 76.5365 128.356 76.4326 128.15 76.4062C128.275 76.2523 128.37 76.0379 128.532 75.955C129.458 75.4814 130.43 75.0907 131.33 74.571C132.233 74.0501 133.105 73.462 133.922 72.8161C135.525 71.5453 137.088 70.2218 138.654 68.9023C139.383 68.2879 140.064 67.6196 140.788 67C141.515 66.3777 141.067 65.7002 140.872 65.074C140.405 63.5782 139.872 62.1022 139.364 60.6182C139.344 60.5603 139.306 60.509 139.264 60.4301C139.058 60.9866 138.918 61.5496 138.647 62.0404C138.412 62.4666 138.003 62.7929 137.718 63.198C136.47 64.9846 134.972 66.5211 133.186 67.7709C132.551 68.2156 131.919 68.7458 131.202 68.9654C130.699 69.1207 129.959 68.972 129.495 68.6839C128.906 68.3195 128.332 68.2643 127.745 68.3734C126.969 68.5182 126.514 68.0406 126.136 67.5815C125.638 66.9776 125.492 66.1909 125.423 65.3977C125.347 64.5097 125.597 59.8789 125.851 59.0027C126.007 58.4633 126.219 57.9332 126.318 57.3833C126.657 55.4915 127.731 53.9641 128.675 52.3578C129.315 51.2725 129.837 50.1148 130.363 48.969C130.576 48.5046 130.625 47.9652 130.816 47.4876C131.312 46.2418 130.9 45.071 130.543 43.9054C130.317 43.1647 130.049 42.4254 129.701 41.7347C129.08 40.4955 127.908 40.2639 126.737 41.0243C125.663 41.7229 123.998 44.2632 123.812 44.475C122.696 45.7445 121.658 51.1028 121.634 51.2975C121.508 52.3486 121.406 53.4063 121.225 54.4483C121.071 55.3363 120.802 56.2032 120.62 57.0886C120.407 58.1318 120.244 59.1856 120.043 60.2315C119.952 60.6985 119.804 61.1537 119.707 61.6181C119.474 62.7284 119.257 63.84 119.032 64.9517C118.972 65.249 118.545 69.6653 118.138 70.4994C117.69 71.4111 117.038 72.2201 116.505 73.0924C116.388 73.2831 116.367 73.5489 116.356 73.783C116.327 74.4526 116.334 75.1236 116.306 75.7932C116.301 75.9037 116.218 76.0537 116.126 76.1116C115.463 76.5207 114.816 76.9667 114.111 77.2903C113.428 77.6034 112.699 77.877 111.964 77.9981C111.001 78.1546 109.988 78.2993 109.041 78.1559C108.242 78.0349 107.436 77.5968 106.758 77.1193C104.844 75.7708 103.652 73.8409 102.79 71.7084C102.444 70.8533 102.85 66.3962 102.88 65.2003C102.9 64.4176 104.285 59.867 104.414 59.2895C104.502 58.8962 104.678 58.5199 104.827 58.1424C105.452 56.5545 106.086 54.9705 106.708 53.3813C106.836 53.0564 106.926 52.7183 107.062 52.2986C106.752 52.1987 106.457 52.1381 106.192 52.0145C105.253 51.5738 104.247 51.2186 103.418 50.6187C102.94 50.274 102.704 49.5452 102.45 48.9505C102.075 48.0731 97.9175 44.2948 96.8651 43.8764C96.1415 43.5883 95.6692 42.724 94.9957 42.2412C93.9564 41.4953 93.5696 40.2402 92.6356 39.4167C92.3448 39.1602 92.0936 38.73 92.0475 38.3524C91.9054 37.2039 91.2371 36.3514 90.6254 35.4503C90.5215 35.2977 90.4162 35.0109 90.4873 34.907C90.5807 34.7715 90.8872 34.6517 91.0372 34.707C92.5487 35.2543 93.6788 34.4833 94.8352 33.6966C96.1455 32.806 97.5071 31.9917 98.8213 31.1063C99.6606 30.5406 100.442 29.8894 101.271 29.3079C102.288 28.5936 103.313 27.8885 104.362 27.2254C105.016 26.8123 105.218 26.1888 105.289 25.5086C105.42 24.2286 105.506 22.9446 105.596 21.6606C105.669 20.6437 105.785 19.6241 105.761 18.6098C105.741 17.7889 105.602 16.9588 105.406 16.1589C105.161 15.1578 104.891 14.1448 104.47 13.2095C104.036 12.2465 103.392 11.3808 102.868 10.4573C102.486 9.78374 102.156 9.07992 101.793 8.39451C101.643 8.11298 101.447 7.85513 101.306 7.56834C100.955 6.85136 100.532 6.15148 100.314 5.39372C100.125 4.73199 100.828 4.80172 101.15 4.83329C102.854 5.00432 104.287 5.65157 105.623 6.84478C107.29 8.33399 108.574 10.1337 110.119 11.711C110.467 12.0662 110.664 12.5714 110.915 13.0148C111.284 13.666 111.606 14.3461 112.006 14.9762C112.99 16.526 113.815 18.1362 114.188 19.953C114.299 20.4898 114.551 20.9028 115.187 21.012C116.229 21.1896 117.289 21.3462 118.286 21.6764C119.524 22.0855 120.707 22.6657 121.915 23.1682C123.318 23.7523 124.389 24.7758 125.477 25.7941C126.164 26.4374 126.958 26.9636 127.661 27.5911C127.875 27.7819 127.939 28.1397 128.081 28.4147C127.733 29.5934 115.879 38.7497 114.954 39.3312C114.324 39.7272 113.753 40.2244 113.178 40.7033C112.523 41.2493 109.786 45.2604 109.55 45.5551C109.066 46.1563 108.626 46.793 108.125 47.4732C108.253 47.5639 108.431 47.7126 108.629 47.831C110.293 48.8269 112.015 49.7372 113.61 50.8331C114.888 51.7119 115.793 52.9814 115.985 54.5759C116.137 55.8362 116.003 57.6819 115.105 58.1134C111.07 60.0525 108.024 65.8844 107.924 67.1329C107.824 68.3813 107.561 73.3147 111.298 71.0598C112.235 69.9166 113.26 68.8234 114.032 67.5762C114.73 66.4488 115.147 65.1451 115.682 63.9163C116.079 63.002 117.629 56.4847 118.038 54.2457C118.394 52.2934 118.651 50.32 119.427 48.4533C119.977 47.1324 120.278 45.7116 120.792 44.3737C121.217 43.2673 121.837 42.2359 122.288 41.1388C122.824 39.8364 123.901 39.1299 124.947 38.2958C126.236 37.2697 127.664 36.7422 129.213 36.4462C131.025 36.1002 132.809 36.1738 134.465 37.1224C134.895 37.3697 135.187 37.3013 135.402 36.8237C136.061 35.3516 136.692 33.8637 137.424 32.4271C138.399 30.5169 141.022 25.5783 141.398 25.06C141.818 24.4838 142.311 23.9484 142.839 23.4682C143.111 23.2209 143.512 23.0827 143.879 22.9762C145.072 22.6275 146.271 22.3657 147.518 22.7907C148.317 23.063 149.151 23.2274 149.954 23.4892C150.416 23.6392 150.849 23.8786 151.288 24.0918C151.655 24.268 152.054 24.4114 152.366 24.6601C153.253 25.3652 154.121 26.098 154.959 26.861C155.254 27.1294 155.448 27.5122 155.671 27.8542C156.164 28.612 156.68 29.3592 157.123 30.146C157.432 30.6932 157.652 31.2931 157.885 31.8799C158.256 32.8192 158.659 33.7493 158.946 34.7149C159.367 36.1331 159.695 37.5802 160.07 39.0128C160.166 39.3825 160.476 42.0386 160.621 42.7451C160.762 43.4331 161.129 46.8101 160.983 47.8257C160.884 48.5125 160.809 49.215 160.845 49.9043C160.872 50.4608 160.22 57.1004 160.126 57.6477L160.132 57.649ZM151.866 51.3186C151.866 51.0633 151.862 50.8081 151.866 50.5529C151.905 48.3599 151.967 46.1668 151.979 43.9738C151.991 41.6676 152.051 39.3549 151.909 37.0566C151.786 35.0425 151.492 33.0283 151.123 31.0432C150.761 29.104 149.806 27.4583 148.081 26.369C147.815 26.2006 147.484 26.044 147.181 26.0414C145.993 26.0309 144.904 26.3256 144.07 27.2557C143.736 27.628 143.407 28.0134 143.029 28.3384C141.724 29.4632 137.403 36.8869 136.838 38.0604C136.582 38.5932 136.646 38.972 136.955 39.4456C137.63 40.481 138.329 41.5163 138.852 42.6293C139.376 43.7422 139.836 44.9223 140.072 46.1221C140.351 47.5416 140.774 48.9703 140.544 50.4595C140.515 50.6463 140.674 50.8621 140.723 50.9976C141.699 50.2214 142.599 49.4833 143.527 48.7808C143.794 48.5782 144.15 48.498 144.449 48.3309C145.601 47.6837 146.919 47.4192 148.107 47.7639C149.849 48.2691 151.029 49.5939 151.866 51.3159V51.3186ZM148.105 51.3541C148.047 51.3804 147.868 51.4185 147.742 51.5238C146.793 52.3105 146.263 53.3024 146.052 54.539C145.791 56.0875 146.441 57.3991 146.919 58.7659C146.976 58.9264 147.162 59.0409 147.286 59.1764C147.422 59.0475 147.6 58.9409 147.688 58.7857C148.689 57.0044 149.731 55.2455 149.603 53.0696C149.561 52.3368 148.859 51.3304 148.105 51.3541V51.3541ZM131.9 53.755C131.858 53.7458 131.814 53.7365 131.772 53.7273C131.576 54.1944 131.334 54.6469 131.196 55.131C131.012 55.7743 130.866 56.4348 130.781 57.0978C130.645 58.17 130.546 59.2487 130.485 60.3275C130.46 60.7748 130.637 61.2352 130.608 61.6812C130.574 62.2074 130.91 62.4034 131.274 62.485C131.38 62.5087 131.663 62.0864 131.744 61.8299C132.476 59.5224 132.158 57.1649 132.029 54.8179C132.009 54.4627 131.944 54.1102 131.9 53.755V53.755ZM151.829 54.4114C151.754 54.3943 151.68 54.3759 151.605 54.3588C151.538 54.5114 151.467 54.6614 151.407 54.8153C151.133 55.5165 150.921 56.2493 150.579 56.9136C149.985 58.0647 149.291 59.1619 148.678 60.3038C148.435 60.7577 148.724 61.1274 149.435 61.397C150.31 61.7312 151.032 61.6509 151.204 61.201C151.22 61.1616 151.221 61.1155 151.225 61.0721C151.427 58.8514 151.628 56.6308 151.829 54.4114Z" fill="white"/>
<path fill-rule="evenodd" clip-rule="evenodd" d="M272.688 52.9733C272.495 53.2916 273.82 65.9302 273.843 66.1854C273.91 66.9445 273.867 67.7141 273.951 68.485C273.969 68.7837 274.535 73.8617 275.013 74.4248C275.125 74.5563 274.99 75.0194 274.833 75.2273C274.533 75.6246 274.144 75.9561 273.773 76.2942C273.652 76.4047 273.479 76.4915 273.317 76.5178C272.716 76.6152 272.111 76.748 271.505 76.748C270.442 76.748 269.377 76.698 268.319 76.602C266.956 76.477 265.825 75.7535 264.658 75.1102C263.748 74.6089 263.225 73.7854 262.668 72.9855C261.962 71.9752 261.299 70.9359 260.618 69.9098C260.557 69.819 259.776 67.4155 259.546 66.2828C259.426 65.696 259.498 65.0606 259.542 64.4515C259.627 63.232 259.706 62.0085 259.872 60.7982C260.097 59.1577 260.422 57.5317 260.668 55.8938C260.88 54.4796 261.04 53.0575 261.228 51.6393C261.263 51.3828 262.277 46.4099 262.461 45.4772C262.714 44.1906 262.937 42.8987 263.198 41.4806C262.879 41.5621 262.712 41.5529 262.657 41.6266C262.256 42.1738 258.967 47.5532 258.722 48.2386C258.334 49.3305 253.363 49.216 252.389 49.0042C251.764 48.8687 251.141 48.6372 250.571 48.3438C248.941 47.5019 247.71 46.1955 246.615 44.755C246.105 44.084 245.63 43.3842 245.147 42.6909C245.076 42.5882 245.038 42.4541 245.011 42.3291C244.863 41.6147 244.74 40.8938 244.572 40.1847C244.484 39.8111 244.567 39.5796 244.814 39.2586C245.154 38.8179 245.339 38.2416 245.522 37.701C245.797 36.8827 245.91 35.996 246.278 35.2264C246.778 34.1779 247.336 33.111 248.089 32.2401C248.729 31.4994 249.175 30.6338 249.847 29.8971C250.746 28.913 253.365 26.3464 253.763 26.0056C254.205 25.6268 256.266 23.885 256.775 23.5363C257.304 23.1746 257.7 22.6181 258.154 22.1471C258.229 22.0695 261.424 18.5793 261.886 18.182C262.71 17.469 264.742 14.6813 265.179 14.1946C265.541 13.792 265.504 13.5236 265.067 13.1842C263.852 12.241 262.564 11.3543 261.515 10.2466C260.77 9.46118 259.8 8.94416 259.163 8.07458C258.885 7.6957 258.688 7.25499 258.487 6.82743C258.179 6.17491 257.892 5.51187 257.617 4.84488C257.568 4.7278 257.575 4.54362 257.637 4.43969C257.679 4.36997 257.871 4.35286 257.987 4.3726C258.97 4.53967 259.943 4.79094 260.931 4.8804C262.239 4.9988 266.035 5.78945 266.593 6.04336C268.438 6.87874 270.095 8.01932 271.724 9.22438C272.492 9.7927 273.072 10.4992 273.751 11.128C275.264 12.5304 276.765 13.9459 278.29 15.3365C279.092 16.0679 279.482 19.958 279.165 20.4395C278.842 20.9289 277.65 21.5604 277.599 21.5959C276.045 22.6668 274.647 21.8064 273.233 21.2341C272.724 21.0276 270.521 20.9749 270.262 20.9618C268.882 20.8947 267.796 21.5696 266.718 22.2839C266.209 22.6207 265.742 23.0298 265.207 23.3166C264.843 23.5113 264.403 23.5982 263.987 23.6442C263.475 23.7008 262.945 23.6074 262.439 23.6824C261.952 23.7534 259.547 24.1441 258.85 24.5914C258.645 24.723 255.712 27.0094 255.378 27.3054C255.22 27.4449 251.358 29.7905 250.647 30.664C249.611 31.9375 248.77 33.3491 248.375 34.962C248.145 35.9039 248.046 36.8787 247.889 37.8391C247.953 37.8812 248.016 37.9233 248.081 37.9654C248.273 37.8746 248.506 37.8272 248.65 37.6878C249.687 36.6959 250.662 35.6355 251.743 34.6962C252.476 34.0595 253.349 33.5846 254.156 33.0347C254.458 32.8281 254.785 32.6426 255.048 32.3914C256.341 31.1547 257.841 30.2391 259.442 29.4642C260.226 29.084 260.999 28.6736 261.747 28.225C263.528 27.1568 265.449 27.3304 267.397 27.4554C268.527 27.5277 269.333 28.1092 270.128 28.7736C270.398 28.9998 270.554 29.3577 270.816 29.5971C271.328 30.0655 271.869 30.5062 272.416 30.9324C272.793 31.2258 273.996 33.278 274.034 33.8674C274.075 34.487 273.851 35.1303 273.697 35.7526C273.521 36.4656 273.296 37.1668 273.089 37.8733C273.071 37.9351 272.888 39.2849 272.87 39.5362C273.688 39.3336 274.465 39.2204 275.134 38.7205C275.442 38.4903 275.785 38.2903 276.138 38.1403C277.115 37.7246 278.12 37.3734 279.09 36.9406C280.325 36.388 281.508 35.7118 282.761 35.2093C284.877 34.3634 287.033 33.6175 289.166 32.811C289.338 32.7452 289.558 32.5519 289.58 32.3914C289.655 31.8743 289.733 31.3337 289.659 30.8219C289.306 28.3658 289.325 25.9109 289.427 23.4377C289.512 21.3946 289.356 19.3423 289.342 17.2927C289.333 15.96 289.417 14.6261 289.4 13.2934C289.385 12.1831 289.315 11.0727 289.21 9.96767C289.051 8.29164 288.908 6.60905 288.629 4.95013C288.437 3.80296 288.043 2.68737 287.708 1.56651C287.545 1.02055 287.729 0.965301 288.251 0.871896C289.567 0.636411 290.596 1.09291 291.631 1.82568C292.671 2.56239 293.807 3.16623 294.895 3.83716C295.038 3.92662 295.232 4.04897 295.262 4.18842C295.45 5.02248 296.213 5.39347 296.66 6.01178C296.95 6.41171 297.14 6.88663 297.356 7.33655C297.778 8.21929 298.124 9.14544 298.619 9.98477C299.169 10.9175 299.218 11.9055 299.231 12.9277C299.235 13.2145 299.323 13.4999 299.366 13.788C299.418 14.1301 299.526 14.4787 299.498 14.8155C299.387 16.1416 299.397 17.4453 299.603 18.7766C299.762 19.8107 299.606 20.8934 299.583 21.955C299.572 22.5405 299.422 23.1614 299.569 23.7008C299.693 24.152 300.078 24.6506 300.487 24.8808C301.819 25.6294 303.199 26.3003 304.596 26.9213C305.006 27.1041 307.698 28.717 308.195 28.9906C309.526 29.7234 316.352 32.9702 316.954 33.1412C317.195 33.2096 318.456 33.7503 318.793 34.0134C319.035 34.2016 319.568 35.0185 319.677 35.133C319.827 35.2882 320.027 35.5263 319.997 35.6895C319.967 35.8526 318.891 37.2339 318.87 37.3931C318.767 37.4681 317.771 37.1616 316.588 37.2694C315.404 37.376 301.34 41.1898 299.812 43.4986C298.285 45.8074 298.226 53.0114 298.181 54.2244C298.131 55.5544 298.357 60.0799 298.413 61.01C298.46 61.8138 298.382 62.6242 298.417 63.4293C298.426 63.6451 298.659 65.5803 298.686 66.0039C298.714 66.4275 299.001 69.8914 299.169 70.9162C299.293 71.6752 299.178 72.4698 299.261 73.2381C299.416 74.6563 299.649 76.0653 299.831 77.4808C299.986 78.6872 300.161 79.8949 300.243 81.1065C300.303 82.0076 300.379 82.9535 300.173 83.8126C299.962 84.6874 299.887 85.5004 300.083 86.3635C300.111 86.4845 300.283 88.9367 300.535 89.8405C300.286 89.8957 300.081 89.9405 299.812 89.9997C298.955 88.521 298.076 87.0436 297.235 85.5452C296.001 83.3443 294.841 81.1065 294.18 78.653C293.755 77.0704 293.367 75.4785 292.973 73.888C292.485 71.9252 292.007 69.9598 291.524 67.9969C291.509 67.9338 291.48 67.872 291.472 67.8075C291.274 66.1894 291.099 64.5686 290.88 62.9544C290.659 61.3376 290.393 59.726 290.15 58.1118C289.7 55.1163 289.711 52.0945 289.647 49.0779C289.621 47.8742 289.431 47.7176 288.218 47.7084C287.753 47.7045 287.27 47.565 286.826 47.4019C285.765 47.0098 284.727 46.552 283.669 46.1495C282.104 45.5535 280.517 45.0102 278.962 44.3866C278.494 44.1985 278.035 43.8828 277.689 43.5144C276.677 42.437 274.121 41.0701 272.875 40.9649C271.629 40.8596 269.441 41.9791 269.326 42.4251C269.162 43.0553 265.283 62.9768 265.138 64.2331C265.068 64.8357 265.625 65.0882 266.26 64.8028C266.927 64.5028 267.333 63.9595 267.7 63.353C268.16 62.5939 268.694 61.8809 269.148 61.1179C269.401 60.693 269.586 60.2207 269.748 59.751C270.081 58.7815 270.389 57.8027 270.683 56.8213C271.032 55.661 271.346 54.4901 271.695 53.3285C271.863 52.7694 272.362 53.0772 272.709 52.9838L272.691 52.972L272.688 52.9733ZM301.876 30.1207C301.972 30.0049 302.067 29.8879 302.163 29.7721C301.88 29.6129 301.574 29.484 301.32 29.288C300.256 28.4644 300.166 28.5013 299.779 29.805C299.657 30.2154 299.804 30.3562 300.153 30.3312C300.729 30.2891 301.303 30.1944 301.878 30.1207H301.876Z" fill="white"/>
<path fill-rule="evenodd" clip-rule="evenodd" d="M223.956 78.5664C223.434 78.4796 223.127 78.077 222.948 77.5653C223.352 77.5048 230.047 76.5273 230.805 76.2195C231.741 75.8393 232.645 75.3749 233.577 74.9789C234.457 74.6053 235.367 74.304 236.241 73.9172C237.246 73.4726 238.249 73.0134 239.207 72.4741C239.574 72.2675 239.902 71.8636 240.06 71.4729C240.136 71.2861 239.844 70.7757 239.602 70.6625C237.907 69.8745 236.177 69.1602 234.469 68.4037C233.934 68.1669 233.44 67.842 232.903 67.6118C231.28 66.9171 229.611 66.3172 228.022 65.5529C226.478 64.8109 212.043 73.0016 211.369 73.9501C210.786 74.7684 208.33 74.9973 208.007 74.9605C207.836 74.9407 207.63 74.8513 207.523 74.7237C206.772 73.8304 206.045 72.9187 205.305 72.0162C205.209 71.8992 205.07 71.8136 204.984 71.69C204.737 71.3348 203.834 70.5639 203.488 70.3468C202.866 69.9548 202.287 69.4904 201.653 69.1168C201.355 68.9405 200.972 68.9089 200.63 68.8037C199.977 68.6011 199.317 68.4208 198.681 68.1735C198.352 68.0459 198.3 67.7578 198.593 67.4986C199.227 66.9382 199.882 66.4014 200.498 65.8226C200.636 65.6924 200.688 65.4358 200.717 65.2293C200.753 64.9701 199.418 62.4929 198.968 61.3615C198.941 61.2905 198.971 61.1905 198.988 61.1063C199.146 60.2933 199.03 60.0631 198.467 59.771C198.155 59.1514 199.423 56.5229 200.264 56.0309C200.842 55.6928 201.276 55.0955 201.747 54.5877C202.349 53.9378 203.04 53.384 203.544 52.6183C203.949 52.0027 204.624 51.5712 205.143 51.0239C205.709 50.4292 206.223 49.7859 206.783 49.186C206.931 49.0269 209.573 46.3615 210.02 45.8866C210.66 45.2078 211.242 44.4737 211.824 43.7436C212.667 42.6832 213.485 41.6032 214.322 40.5376C214.496 40.3179 213.156 38.9852 213.147 38.8129C213.113 38.1446 211.726 36.7198 211.64 36.4238C211.475 35.866 210.844 34.14 210.606 33.8637C210.45 33.6822 210.773 32.3956 210.928 32.0746C211.515 30.8722 212.024 29.6316 212.634 28.441C213.33 27.082 214.088 25.7546 214.846 24.4286C215.58 23.1446 216.348 21.8816 217.099 20.6082C217.333 20.2096 217.582 19.8162 217.779 19.3992C217.898 19.1479 217.992 18.8545 217.986 18.5835C217.975 18.1481 217.87 17.7153 217.787 17.1627C217.006 17.2167 216.176 17.3995 215.417 17.8166C215.038 18.0257 213.218 18.8558 212.586 19.4307C211.608 20.3201 211.052 21.5106 210.291 22.5539C209.862 23.1433 209.661 23.8931 209.301 24.5404C208.774 25.4876 208.119 26.3716 207.676 27.353C207.434 27.8898 207.307 28.6436 207.492 29.1751C207.91 30.3801 207.763 31.4957 207.459 32.6653C207.297 33.2888 207.288 33.9506 207.206 34.5952C207.192 34.7031 206.125 41.4295 206.056 41.6453C205.931 42.0386 205.743 42.4122 205.545 42.8845C205.36 42.7464 203.986 42.999 203.773 43.1621C202.882 43.8449 199.375 39.7232 199.131 39.101C198.688 37.9657 197.321 33.9782 197.388 33.5796C197.45 33.206 197.646 32.8547 197.766 32.489C198.034 31.6733 198.309 30.8603 198.531 30.0315C198.563 29.9157 198.87 28.4857 199.048 27.8701C199.072 27.7872 199.322 24.5891 199.45 23.0801C199.586 21.4567 199.44 19.853 199.185 18.2586C199.13 17.9113 198.875 17.5942 198.616 17.0706C199.608 17.1811 200.503 17.0443 201.248 17.6297C202.397 18.5322 203.581 19.4097 204.607 20.4398C205.225 21.0607 205.976 21.6567 206.188 22.6315C206.264 22.9867 206.559 23.2945 206.792 23.6879C207.008 23.505 207.289 23.3511 207.444 23.113C207.777 22.6065 208.04 22.0553 208.342 21.5277C208.405 21.4172 208.505 21.3278 208.593 21.2331C209.407 20.3714 210.25 19.5334 211.031 18.6414C211.775 17.7902 212.471 16.9246 213.491 16.3418C214.504 15.763 215.401 14.9855 216.397 14.3711C217.185 13.8857 218.077 13.5686 218.866 13.0858C220.17 12.2886 223.223 12.6359 223.324 12.7043C224.37 13.4173 225.515 14.0291 226.425 14.8881C227.9 16.2787 229.077 17.9021 228.835 20.1188C228.798 20.4582 228.671 20.791 228.554 21.116C228.305 21.804 228.033 22.4842 227.778 23.1696C227.717 23.3327 226.179 26.4821 225.3 27.7845C224.958 28.2923 223.48 30.1894 223.124 30.6564C222.693 31.2234 222.288 31.8167 221.939 32.4377C221.88 32.5429 222.109 32.9455 222.29 33.0297C223.606 33.644 224.636 34.6097 225.619 35.6384C226.463 36.5225 226.57 37.5697 226.352 38.7274C226.02 40.4797 225.404 42.0557 224.143 43.3844C223.301 44.2711 222.623 45.313 221.856 46.2734C221.704 46.4642 221.481 46.5983 221.189 46.8444C221.939 46.9851 222.653 46.9812 223.234 47.2588C224.244 47.7442 225.218 48.3388 226.123 49.0019C227.646 50.1188 228.691 51.6882 229.752 53.213C230.077 53.68 230.151 54.3338 230.292 54.914C230.382 55.2902 230.394 55.6875 230.428 56.0769C230.534 57.2794 229.838 58.2305 229.409 59.2619C229.179 59.8158 228.892 60.3486 228.61 60.88C228.331 61.4076 228.045 61.9338 227.726 62.4377C227.407 62.9415 227.486 63.252 228.05 63.4612C229.117 63.8558 230.182 64.2505 231.251 64.6373C232.581 65.1175 233.909 65.6003 235.245 66.0633C236.71 66.5725 238.186 67.054 239.651 67.5657C240.018 67.6933 240.344 67.9591 240.715 68.0446C241.156 68.1446 245.897 70.4415 247.232 71.394C248.569 72.3478 251.396 75.3222 251.938 76.5391C252.219 77.1706 252.597 77.7679 252.985 78.3428C253.276 78.7743 253.438 79.1808 253.222 79.6873C253.155 79.8451 253.132 80.0254 253.105 80.1977C252.993 80.8818 252.375 81.3383 251.673 81.2278C251.037 81.1265 250.407 80.9712 249.766 80.9055C249.376 80.866 248.974 80.9541 248.577 80.9778C248.449 80.9857 248.31 81.0055 248.194 80.966C247.381 80.6897 224.533 78.6572 223.952 78.5611L223.956 78.5664ZM211.391 70.36C212.353 68.8721 213.314 67.3842 214.275 65.8963C214.231 65.8279 214.189 65.7594 214.146 65.6924C213.126 65.9765 212.096 66.2317 211.088 66.554C210.515 66.7382 207.048 67.8591 206.031 68.6011C205.499 68.9905 205.445 69.2996 205.976 69.5667C206.772 69.9666 207.578 70.356 208.41 70.6717C209.44 71.0625 211.137 70.7336 211.39 70.36H211.391ZM204.883 63.8598C205.279 63.8361 205.545 63.8637 205.785 63.7979C206.663 63.5585 207.521 63.2402 208.406 63.0402C209.723 62.7429 211.05 62.4692 212.387 62.2824C213.658 62.1048 214.946 62.0535 216.226 61.9378C216.34 61.9272 216.501 61.8785 216.548 61.7957C216.88 61.2129 217.173 60.609 217.506 60.0276C218.042 59.0869 220.432 55.9204 220.272 54.7114C220.159 53.8536 220.759 52.9104 221.006 51.9961C221.137 51.5172 221.229 51.0212 221.273 50.5279C221.309 50.149 221.1 49.9543 220.691 50.0767C220.188 50.228 218.817 50.3385 217.94 51.062C217.183 51.5567 214.977 53.9194 214.763 54.6259C214.681 54.8956 214.454 55.1258 214.275 55.3586C213.95 55.7809 213.605 56.1861 213.281 56.6084C213.1 56.8452 212.979 57.1373 212.77 57.3425C212.43 57.678 212.12 57.9937 211.58 58.1463C211.119 58.2766 208.581 59.9499 208.094 60.3617C207.782 60.6261 207.543 60.9879 207.21 61.2142C206.239 61.8746 205.634 62.8297 204.883 63.8598V63.8598Z" fill="white"/>
<path fill-rule="evenodd" clip-rule="evenodd" d="M192.401 67.864C192.251 68.8152 192.158 69.8624 192.864 70.7306C192.957 70.8464 192.122 73.2289 191.644 73.4959C191.297 73.6893 191.017 74.0156 190.738 74.3129C190.332 74.7457 188.295 76.2875 187.586 76.9045C186.919 77.4847 186.184 77.7044 185.288 77.3768C183.789 76.8282 182.249 76.3283 181.015 75.3035C180.252 74.6694 179.683 73.7919 179.069 72.9921C178.307 72.0001 178 70.6846 176.913 69.9229C176.477 69.6177 177.318 64.0371 177.376 63.8016C177.619 62.8294 177.831 61.8493 178.027 60.8666C178.149 60.2496 178.134 59.5905 178.338 59.0064C178.764 57.7895 178.71 56.4371 179.426 55.3004C179.64 54.9597 180.721 52.5036 180.844 52.2799C181.309 51.4314 181.469 50.5315 181.375 49.5751C181.365 49.4712 181.387 49.3541 181.427 49.2568C181.711 48.5503 179.397 48.5727 178.548 48.8937C178.243 49.0094 175.993 49.8974 175.263 49.7606C174.975 49.7067 174.671 49.5949 174.434 49.4251C173.929 49.0607 173.474 48.6266 172.978 48.249C172.796 48.1109 170.518 45.835 170.065 45.1575C169.767 44.7115 169.387 44.305 169.168 43.8235C168.801 43.0131 168.55 42.1514 168.21 41.3266C168.137 41.1463 167.905 41.0227 167.73 40.8938C167.649 40.8332 167.517 40.8398 167.43 40.7832C166.615 40.2544 166.436 39.0046 166.908 38.1429C167.395 37.2562 168.178 36.6642 168.824 35.9394C169.604 35.0645 170.048 34.0265 170.451 32.9557C170.539 32.7202 170.724 32.5229 170.832 32.2926C171.582 30.6982 172.522 29.2221 173.573 27.8118C174.662 26.3516 177.519 22.7667 177.835 22.4128C178.586 21.5721 180.632 19.4081 180.935 19.2068C182.207 18.3609 185.388 12.8579 185.801 11.1398C186.055 10.0847 179.674 3.28456 179.373 3.0504C179.211 2.92542 179.112 2.71756 178.985 2.54785C179.185 2.53996 179.418 2.45971 179.58 2.5347C180.356 2.89516 181.106 3.31614 181.882 3.67923C182.428 3.93445 183.013 4.10416 183.558 4.35938C184.558 4.8264 185.54 5.32763 186.53 5.81702C186.568 5.83543 186.594 5.88148 186.634 5.89595C188.392 6.54583 189.605 8.0311 191.234 8.89674C191.894 9.24799 193.586 10.9411 193.894 11.2029C194.658 11.8528 195.161 12.6934 195.74 13.4933C196.216 14.1524 196.87 14.8588 197.128 15.5311C197.428 16.3112 197.764 18.3819 197.895 19.5922C197.996 20.5315 196.826 21.1788 196.115 21.0486C195.581 20.9512 193.828 20.5776 192.661 20.0948C191.58 19.6475 190.23 19.5857 189.078 19.6317C188.203 19.6659 185.66 20.7881 185.159 20.9288C184.506 21.1104 181.508 22.2365 180.546 22.7772C179.586 23.3166 179.001 23.9467 178.598 24.2506C178.445 24.3651 174.351 27.8132 173.421 29.4563C172.49 31.1021 171.226 32.6662 171.347 34.7198C171.403 34.7619 171.461 34.8053 171.518 34.8474C172.008 34.4423 172.504 34.0423 172.991 33.6292C174.221 32.5834 175.387 31.452 176.691 30.5074C178.059 29.5168 179.549 28.6933 180.999 27.8171C181.719 27.383 182.492 27.033 183.196 26.5752C184.214 25.9135 188.216 25.974 189.086 26.1634C190.016 26.366 190.78 26.887 191.658 27.1606C191.794 27.2027 191.901 27.333 192.03 27.408C192.454 27.6566 192.892 27.8829 193.305 28.1486C193.518 28.2854 193.724 28.4617 193.87 28.6656C194.107 28.9972 194.278 29.3747 194.511 29.7102C194.564 29.7865 195.692 31.6296 195.685 32.1492C195.656 33.9936 185.496 48.3017 185.134 49.2489C184.786 50.1619 184.379 51.0512 184 51.951C183.866 52.2681 183.737 52.5877 183.608 52.9074C183.48 53.2258 182.051 58.6262 182.025 59.2839C181.97 60.6758 181.941 62.069 181.944 63.4608C181.944 63.7397 182.138 64.0173 182.316 64.4857C182.591 63.9989 182.732 63.5937 183 63.3056C183.484 62.7873 185.897 59.055 186.197 58.638C187.039 57.4672 189.096 54.1138 189.35 53.6507C189.683 53.0429 189.908 52.3707 190.289 51.7997C190.643 51.2709 192.907 47.5676 193.163 47.1308C193.49 46.573 193.922 46.0757 194.328 45.5258C194.95 46.5585 192.526 67.0747 192.401 67.8666V67.864Z" fill="white"/>
</svg>
