<svg width="226" height="50" viewBox="0 0 226 50" fill="none" xmlns="http://www.w3.org/2000/svg">
<rect width="51.875" height="50" fill="white"/>
<path fill-rule="evenodd" clip-rule="evenodd" d="M2.5 36.0872V2.76023C2.76619 2.72547 3.04142 2.65775 3.31665 2.65775C14.2383 2.65232 25.1599 2.65341 36.0812 2.65341H36.5817V11.6997H11.7384V36.0872H2.5Z" fill="#221815"/>
<path fill-rule="evenodd" clip-rule="evenodd" d="M2.59546 47.5055V39.0205H36.0671V47.5055H2.59546Z" fill="#221815"/>
<path fill-rule="evenodd" clip-rule="evenodd" d="M49.375 36.0127H40.989V2.5H49.375V36.0127Z" fill="#221815"/>
<path fill-rule="evenodd" clip-rule="evenodd" d="M35.3806 33.1429V35.8214H14.0097V14.0078H35.3564V16.6719H16.2651V23.6338H35.9702V26.3399H16.2759V33.1429H35.3806Z" fill="#221815"/>
<path fill-rule="evenodd" clip-rule="evenodd" d="M40.9851 47.5066V39.0205H49.3725V47.5066H40.9851Z" fill="#221815"/>
<path fill-rule="evenodd" clip-rule="evenodd" d="M99.1875 44.5622C98.9182 44.616 98.642 44.6377 98.3676 44.6614C98.3369 44.6639 98.264 44.5782 98.2717 44.5591C98.3024 44.4855 98.3446 44.4056 98.406 44.3582C98.7699 44.0743 99.1657 43.8262 99.5027 43.5147C100.151 42.9162 100.767 42.2818 101.11 41.4421C101.143 41.3609 101.15 41.2694 101.17 41.1824C101.08 41.1773 99.6895 41.499 99.0416 41.4984C98.6631 41.4984 97.1027 42.2089 96.9236 42.3515C96.7375 42.4998 96.5917 42.7026 96.4427 42.8931C96.3077 43.0658 96.1555 43.0428 96.0366 42.9155C95.8377 42.7026 94.521 41.6761 94.4206 41.1511C94.409 41.0904 94.4314 40.9848 94.4743 40.9593C94.7077 40.8179 95.0236 39.0177 94.9597 38.8534C94.8804 38.6494 94.7448 38.398 94.4154 38.391C94.2198 38.3865 93.1985 38.2752 92.8877 38.2458C92.6696 38.2254 92.4445 38.1205 92.2539 38.0028C92.0499 37.8775 91.9559 37.1395 91.961 37.0755C92.0346 36.1553 92.4848 35.3834 92.9132 34.6013C93.0917 34.2758 93.2509 33.9387 93.4421 33.6209C93.5393 33.4604 93.6934 33.3351 93.8137 33.1873C94.5504 32.2837 95.2781 31.3724 96.0225 30.4752C96.2841 30.1599 96.5866 29.8779 96.8686 29.5786C97.0828 29.3516 97.2945 29.1213 97.5075 28.8924C97.5004 28.8572 97.4934 28.8214 97.4864 28.7856C97.1979 28.7792 96.9102 28.7715 96.6217 28.7658C96.2758 28.7594 95.9176 28.8067 95.5883 28.73C95.4048 28.6871 95.2148 28.4665 95.1234 28.2791C94.9603 27.9459 94.8446 27.5833 94.7576 27.2214C94.6994 26.9783 94.716 26.7149 94.7167 26.461C94.7167 26.0965 94.7269 25.7319 94.7467 25.3681C94.7518 25.2677 94.7793 25.1449 94.8433 25.0764C95.0927 24.8072 95.3632 24.5572 95.6222 24.2962C95.8332 24.0839 96.0366 23.8639 96.2508 23.6542C96.3321 23.5742 96.4427 23.5244 96.5226 23.4438C96.7426 23.2212 96.9645 22.9987 97.1615 22.757C97.2242 22.6802 97.2338 22.5414 97.2293 22.4327C97.2229 22.278 96.9434 21.9352 96.8405 21.9672C96.4619 22.0855 96.0021 21.8194 95.8575 21.7811C95.7079 21.7414 95.5627 21.6295 95.4559 21.5125C95.4016 21.453 94.9021 20.8941 94.5178 21.0872C94.2626 21.2151 93.3181 21.5061 93.045 21.3865C93.0021 21.3673 89.4177 28.4147 89.426 28.4409C89.5814 28.9295 89.2354 29.2396 89.0244 29.6003C88.9342 29.7544 87.8324 31.5668 87.8771 31.9908C87.9334 32.5248 87.9328 33.0645 87.973 33.6011C87.9973 33.9247 88.0613 34.2451 88.0888 34.568C88.1316 35.0751 87.9916 35.5414 87.7946 36.0088C87.6053 36.4584 87.4723 36.9361 87.3572 37.4119C87.2351 37.9133 86.8545 39.0861 86.8769 39.1028C86.7503 39.301 85.1132 42.519 85.0044 42.709C84.8407 42.9948 84.6355 43.2583 84.4327 43.5205C84.2601 43.745 84.035 43.7418 83.8041 43.6113C83.3245 43.3401 82.8448 43.0696 82.3684 42.7915C82.142 42.6597 81.8996 42.5395 81.7084 42.3655C81.1623 41.8674 80.6468 41.3353 80.1033 40.8339C79.7362 40.4956 79.3135 40.2635 78.8204 40.1138C78.1515 39.9111 77.512 39.6137 76.8597 39.3567C76.1179 39.0644 75.3869 38.7466 74.7595 38.2433C74.4788 38.0182 74.2255 37.7592 73.9602 37.5155C73.8508 37.4151 72.0013 35.2446 71.7193 35.0457C71.546 34.9229 71.3561 34.7919 71.1553 34.7458C70.6916 34.6396 70.2619 34.0871 70.3949 33.6356C70.6072 32.9155 70.8662 32.2095 71.1079 31.4977C71.1994 31.2279 71.2665 30.9446 71.3957 30.6932C71.7711 29.9616 72.1478 29.2288 72.5711 28.5247C72.9395 27.912 73.3609 27.3294 73.7805 26.7488C74.3503 25.9609 74.9456 25.1916 75.5212 24.4075C76.0654 23.6663 76.5636 22.8887 77.1468 22.1801C77.5868 21.6455 78.1336 21.1998 78.6241 20.7054C78.9809 20.3454 79.3224 19.97 79.671 19.6023C79.7714 19.4961 79.875 19.3925 79.9741 19.2851C80.0866 19.1629 80.297 19.0286 80.2862 18.9161C80.2638 18.6852 80.1097 18.4697 80.0336 18.2401C79.788 17.4989 78.9598 15.3335 79.0775 14.3346C79.1952 13.3351 82.8365 6.96943 83.1467 6.60043C83.2324 6.49875 83.2816 6.36829 83.3539 6.2551C83.4568 6.09458 83.5643 5.93726 83.673 5.78122C83.6896 5.75692 83.7357 5.7518 83.7497 5.72686C84.09 5.13979 84.7173 4.75801 84.9021 4.05135C84.9782 3.76102 85.2756 3.71945 85.5218 3.91066C85.8882 4.19524 86.2509 4.4843 86.6122 4.77528C86.6691 4.82132 86.7164 4.88271 86.7561 4.94475C87.3003 5.78826 87.8458 6.63177 88.3849 7.47847C88.6727 7.93061 88.8581 8.42175 88.9489 8.95382C89.0161 9.34648 89.1101 9.73594 89.2207 10.1184C89.4247 10.8231 89.0634 11.7191 88.4348 12.1705C87.9775 12.4992 87.5695 12.8957 87.1359 13.2583C87.0745 13.3095 82.7406 16.6522 82.5046 16.9099C82.4266 16.9956 81.8466 17.3231 81.6963 17.4606C81.6656 17.4887 81.7052 17.5929 81.7123 17.662C81.7801 17.6505 81.8574 17.6575 81.9131 17.6255C82.3678 17.3659 82.8186 17.0986 83.2707 16.8338C83.3347 16.7961 83.3993 16.7596 83.4626 16.7213C83.5924 16.6426 83.7133 16.5147 83.8514 16.4911C84.3419 16.4092 84.8164 16.5032 85.2679 16.7066C85.7546 16.9259 86.2451 17.1382 86.7215 17.3781C86.9888 17.5124 87.2856 17.6498 87.4736 17.8686C87.918 18.3866 88.248 18.9417 88.3261 19.6848C88.374 20.1382 88.4073 20.5954 88.4245 21.0507C88.4309 21.2189 88.3478 21.3903 88.3133 21.5611C88.2755 21.7446 88.2544 21.932 88.2129 22.1149C88.1579 22.356 86.6109 24.3359 86.4306 24.6019C86.3417 24.733 86.0827 25.088 86.0257 25.1564C85.956 25.2414 85.9375 25.4071 85.9618 25.5241C86.0648 26.0319 86.4312 26.4053 86.6793 26.8389C86.7733 27.0033 86.9287 27.0225 87.0956 26.844C87.2517 26.6765 92.5135 20.9081 92.5072 20.708C92.504 20.6031 92.5398 20.4969 92.541 20.3914C92.543 20.2603 92.5705 20.1036 92.5116 20.002C92.2801 19.6003 92.0039 19.2256 91.7736 18.8233C91.537 18.4089 91.2889 17.9907 91.1309 17.5437C90.9525 17.0391 90.8681 16.5019 90.7447 15.9782C90.579 15.2754 90.3578 14.5796 90.2702 13.8678C90.2024 13.3133 90.2836 12.7365 90.3424 12.1744C90.3565 12.0388 90.5253 11.8585 90.659 11.8169C90.7613 11.7856 90.957 11.9103 91.0504 12.0177C91.5831 12.6355 92.1151 13.2564 92.6076 13.9068C92.747 14.091 92.7828 14.3717 92.8141 14.6154C92.8518 14.9064 92.8877 15.1794 93.1588 15.3578C93.1965 15.3374 93.2336 15.3297 93.2496 15.3073C93.5719 14.8552 93.8898 14.3992 94.214 13.9477C94.3163 13.8058 94.4302 13.6715 94.5453 13.5397C94.8746 13.1605 95.2155 12.7909 95.5371 12.4052C95.7591 12.1392 95.9599 11.8546 96.1658 11.5752C96.332 11.3494 97.2798 10.2802 97.4717 10.0666C97.9852 9.49484 98.5639 9.00882 99.2271 8.62575C99.8551 8.26315 100.466 7.84491 101.136 7.58719C101.845 7.31476 102.606 7.26616 103.381 7.45098C104.367 7.68568 105.175 8.21327 105.902 8.87132C106.214 9.15398 106.431 9.54408 106.688 9.88686C106.834 10.0819 107.002 10.2674 107.114 10.481C107.506 11.2279 107.783 12.0222 107.793 12.8676C107.797 13.1842 107.591 13.5033 107.483 13.8218C107.326 14.2848 106.973 14.5853 106.627 14.9006C106.31 15.1903 105.639 16.1438 105.536 16.2372C105.244 16.5038 104.924 16.7405 104.609 16.9803C104.344 17.1811 104.074 17.3749 103.8 17.5622C103.719 17.6179 101.084 19.1098 100.978 19.248C101.196 19.4641 101.433 19.7398 101.71 19.9668C102.137 20.3153 102.119 20.8826 102.409 21.2938C102.437 21.3328 102.437 21.3967 102.436 21.4492C102.422 22.1047 102.272 22.7154 101.833 23.2264C101.415 23.7124 100.996 24.1958 100.577 24.68C100.242 25.0675 99.8999 25.4486 99.5737 25.8439C99.2699 26.2116 98.9828 26.594 98.6292 27.0455C98.9438 27.1689 99.1702 27.2668 99.4042 27.3422C99.458 27.3595 99.5481 27.3134 99.6019 27.2719C100.107 26.8818 100.591 26.461 101.119 26.1054C101.312 25.9756 101.614 25.9379 101.854 25.9654C102.259 26.0114 103.159 26.1105 103.196 26.1272C104.006 26.4891 104.795 26.8562 105.481 27.465C105.787 27.7368 106.429 28.6033 106.541 28.7632C106.65 28.9167 106.732 29.1085 106.762 29.294C106.854 29.8638 106.922 30.4381 106.985 31.0124C106.998 31.1294 106.979 31.2669 106.927 31.3718C106.704 31.8258 105.823 33.4137 105.785 33.8671C105.758 34.1875 103.21 37.4791 102.99 37.7048C103.288 37.825 103.484 37.9018 103.678 37.9817C104.363 38.265 105.065 38.5151 105.725 38.847C106.113 39.042 106.483 39.326 106.576 39.8165C106.588 39.8779 106.61 39.9476 106.652 39.991C107.027 40.3837 107 40.9183 107.148 41.3897C107.197 41.5457 106.896 42.0068 106.721 42.0631C106.49 42.1372 105.754 42.2242 105.622 42.2274C105.432 42.2312 105.207 42.1961 105.061 42.2837C104.767 42.4608 99.3211 44.5341 99.1881 44.561L99.1875 44.5622ZM78.6401 28.3188C78.8908 27.9031 79.1638 27.4995 79.4497 27.1069C79.8097 26.6119 81.8191 23.1208 81.9303 22.8279C82.0563 22.496 82.2066 22.0816 82.11 21.7785C81.9789 21.3679 81.6259 21.0264 81.3618 20.66C81.2058 20.4426 81.0472 20.5174 80.8809 20.6632C80.4262 21.061 79.9479 21.4338 79.5111 21.8508C77.3073 23.2609 73.8514 28.7229 73.2874 29.5383C72.6997 30.3869 72.3224 31.2682 72.238 32.2773C72.2009 32.7224 72.2571 33.1752 72.2603 33.6241C72.2642 34.1191 72.4791 34.4913 72.8723 34.7823C73.0508 34.914 73.2043 35.0803 73.3692 35.2312C74.2012 35.9922 75.0205 36.7814 76.0417 37.2815C77.0074 37.754 78.0095 38.1512 78.9995 38.572C79.4593 38.767 79.93 38.9359 80.393 39.122C81.0523 39.3867 81.7078 39.663 82.3697 39.9213C82.5385 39.9872 82.7201 40.0396 82.7547 39.7352C82.8755 38.6788 82.7291 37.6255 82.7348 36.5396C82.5839 36.5396 82.378 36.4763 82.2859 36.5518C82.0295 36.7609 79.387 37.7707 79.0091 37.7688C78.6669 37.7675 77.8337 37.7393 77.762 37.7246C76.5853 37.4867 75.9081 36.4955 75.6465 35.6571C75.6433 35.6469 75.644 35.636 75.6421 35.6258C75.5263 34.9843 76.0206 32.4851 76.1006 32.2837C76.2183 31.9851 76.3321 31.6717 76.5182 31.4159C76.8763 30.9247 78.4284 28.6692 78.6388 28.32L78.6401 28.3188ZM102.654 9.30747C102.455 9.27038 102.375 9.25631 102.296 9.2416C101.761 9.14311 98.539 10.5232 98.0351 10.7898C97.3099 11.1736 94.9226 14.5764 94.5101 15.5043C94.3841 15.7876 94.3214 16.0664 94.4577 16.3919C94.5529 16.6196 94.5235 16.901 94.5421 17.1587C94.5574 17.3685 94.5606 17.5789 94.5734 17.8775C94.7352 17.7279 98.3555 14.3436 98.5447 14.1051C98.7392 13.8608 102.258 9.83058 102.654 9.30683L102.654 9.30747ZM99.2022 30.6932C99.0992 30.7367 99.025 30.7457 98.9879 30.7879C98.681 31.1345 98.3599 31.4722 98.0837 31.8418C97.2856 32.9079 96.5616 34.0206 96.0085 35.2389C95.8575 35.5708 95.722 35.8765 95.8102 36.2589C95.8595 36.4738 95.9349 36.555 96.1447 36.5262C96.6403 36.4578 97.0182 36.1751 97.3789 35.8579C97.9705 35.338 98.2301 34.6026 98.6132 33.9477C98.736 33.7379 98.8754 33.518 98.9189 33.2858C99.0634 32.5152 99.1702 31.7382 99.2821 30.9618C99.293 30.8889 99.238 30.8064 99.2022 30.6932ZM101.63 28.5848C102.086 29.0651 102.489 29.4897 102.886 29.9079C103.203 29.381 103.269 28.753 103.305 28.1205C103.315 27.9395 103.194 27.7681 103.007 27.8557C102.526 28.0802 102.067 28.3494 101.63 28.5841V28.5848ZM82.8531 21.0021C83.0783 20.5807 83.8706 19.0926 83.7894 18.9257C83.7632 18.8713 83.5457 18.8508 83.4575 18.8962C82.9561 19.1508 82.4669 19.4302 81.9086 19.7372C82.2341 20.1733 82.5142 20.5481 82.8538 21.0028L82.8531 21.0021ZM83.0827 29.285C82.7048 29.2787 82.3997 29.5613 82.2917 29.9393C82.2507 30.0825 82.1337 30.2085 82.0359 30.3294C81.9201 30.4726 81.7884 30.6024 81.663 30.738C81.6899 30.7713 81.7167 30.8039 81.7436 30.8371C81.9732 30.7118 82.2098 30.5973 82.4311 30.4579C82.6121 30.3441 82.7822 30.2098 82.9408 30.0665C83.0098 30.0039 83.0648 29.899 83.077 29.8069C83.0987 29.6425 83.0834 29.4737 83.0834 29.285H83.0827Z" fill="#221815"/>
<path fill-rule="evenodd" clip-rule="evenodd" d="M148.212 31.3329C147.131 37.318 144.477 37.9102 144.132 38.0509C143.723 38.2178 143.307 38.3713 142.914 38.5696C142.754 38.6501 142.65 38.8369 142.513 38.968C142.399 39.0767 142.274 39.1733 142.071 39.3453C142.043 38.8746 141.768 38.8535 141.502 38.7307C141.155 38.5708 140.87 38.2421 140.605 37.9441C140.218 37.508 139.872 37.0341 139.51 36.5756C139.385 36.417 139.258 36.4208 139.102 36.541C138.18 37.2503 137.271 37.9787 136.325 38.654C135.499 39.2423 134.636 39.7795 133.684 40.1555C133.439 40.2527 133.21 40.3902 132.963 40.483C132.88 40.5143 132.765 40.4638 132.666 40.451C132.726 40.3762 132.772 40.2719 132.851 40.2316C133.301 40.0014 133.774 39.8115 134.211 39.5589C134.65 39.3056 135.074 39.0198 135.471 38.7058C136.251 38.088 137.01 37.4447 137.771 36.8032C138.126 36.5046 138.457 36.1797 138.809 35.8785C139.162 35.576 138.944 35.2467 138.85 34.9423C138.623 34.2152 138.364 33.4976 138.117 32.7763C138.107 32.7481 138.089 32.7232 138.068 32.6848C137.968 32.9553 137.9 33.229 137.768 33.4676C137.654 33.6748 137.455 33.8334 137.317 34.0303C136.71 34.8988 135.981 35.6457 135.114 36.2533C134.805 36.4694 134.498 36.7271 134.149 36.8339C133.904 36.9094 133.545 36.8371 133.319 36.6971C133.033 36.5199 132.754 36.4931 132.469 36.5462C132.091 36.6165 131.87 36.3844 131.687 36.1612C131.444 35.8676 131.373 35.4852 131.34 35.0996C131.303 34.6679 131.424 32.4169 131.548 31.9909C131.624 31.7287 131.727 31.471 131.775 31.2037C131.94 30.2841 132.462 29.5416 132.921 28.7608C133.232 28.2332 133.485 27.6704 133.741 27.1134C133.845 26.8877 133.869 26.6255 133.961 26.3933C134.202 25.7877 134.002 25.2186 133.829 24.652C133.719 24.2919 133.588 23.9325 133.42 23.5968C133.118 22.9943 132.548 22.8818 131.979 23.2514C131.456 23.591 130.647 24.8259 130.557 24.9289C130.014 25.546 129.51 28.1507 129.498 28.2453C129.437 28.7563 129.387 29.2705 129.299 29.777C129.224 30.2086 129.093 30.6301 129.005 31.0605C128.901 31.5676 128.822 32.0798 128.724 32.5882C128.68 32.8153 128.609 33.0365 128.561 33.2623C128.448 33.802 128.343 34.3424 128.233 34.8828C128.204 35.0273 127.997 37.1742 127.798 37.5796C127.581 38.0228 127.264 38.4161 127.005 38.8401C126.948 38.9328 126.938 39.062 126.932 39.1758C126.918 39.5013 126.922 39.8275 126.908 40.153C126.906 40.2067 126.865 40.2796 126.821 40.3077C126.498 40.5066 126.184 40.7234 125.841 40.8807C125.509 41.0329 125.155 41.166 124.797 41.2248C124.329 41.3009 123.837 41.3712 123.376 41.3015C122.988 41.2427 122.596 41.0297 122.267 40.7976C121.336 40.1421 120.757 39.2039 120.338 38.1673C120.17 37.7516 120.367 35.585 120.381 35.0037C120.391 34.6232 121.064 32.4111 121.127 32.1304C121.17 31.9391 121.256 31.7562 121.328 31.5727C121.632 30.8008 121.94 30.0309 122.242 29.2583C122.304 29.1004 122.348 28.936 122.414 28.732C122.263 28.6834 122.12 28.654 121.992 28.5939C121.535 28.3796 121.046 28.207 120.643 27.9154C120.411 27.7478 120.296 27.3935 120.172 27.1045C119.99 26.6779 117.969 24.8412 117.457 24.6379C117.106 24.4978 116.876 24.0777 116.549 23.843C116.044 23.4804 115.856 22.8703 115.401 22.47C115.26 22.3452 115.138 22.1361 115.116 21.9526C115.047 21.3943 114.722 20.9799 114.424 20.5418C114.374 20.4677 114.323 20.3282 114.357 20.2777C114.403 20.2118 114.552 20.1537 114.624 20.1805C115.359 20.4465 115.909 20.0718 116.471 19.6894C117.108 19.2564 117.77 18.8606 118.408 18.4302C118.816 18.1552 119.196 17.8386 119.599 17.556C120.094 17.2087 120.592 16.8659 121.102 16.5436C121.42 16.3428 121.518 16.0397 121.552 15.7091C121.616 15.0868 121.658 14.4627 121.702 13.8385C121.737 13.3442 121.793 12.8486 121.782 12.3555C121.772 11.9564 121.704 11.5529 121.609 11.1641C121.49 10.6774 121.359 10.185 121.154 9.73032C120.943 9.2622 120.63 8.8414 120.376 8.39247C120.19 8.06504 120.03 7.7229 119.853 7.38972C119.78 7.25286 119.685 7.12752 119.616 6.98811C119.446 6.63958 119.24 6.29936 119.134 5.931C119.042 5.60933 119.384 5.64322 119.54 5.65857C120.369 5.74171 121.066 6.05635 121.715 6.63638C122.525 7.3603 123.149 8.23515 123.901 9.00192C124.069 9.17459 124.165 9.42016 124.287 9.63567C124.467 9.95223 124.623 10.2829 124.818 10.5892C125.296 11.3425 125.697 12.1253 125.879 13.0084C125.932 13.2694 126.055 13.4702 126.364 13.5232C126.87 13.6096 127.386 13.6857 127.871 13.8462C128.472 14.0451 129.047 14.3271 129.634 14.5714C130.317 14.8553 130.837 15.3529 131.366 15.8478C131.7 16.1606 132.086 16.4164 132.428 16.7214C132.532 16.8141 132.563 16.9881 132.632 17.1217C132.463 17.6947 126.7 22.1457 126.251 22.4284C125.944 22.6209 125.667 22.8626 125.387 23.0954C125.069 23.3608 123.739 25.3106 123.624 25.4539C123.388 25.7461 123.175 26.0557 122.931 26.3863C122.993 26.4304 123.08 26.5027 123.176 26.5602C123.985 27.0443 124.822 27.4869 125.597 28.0196C126.219 28.4468 126.659 29.0639 126.752 29.839C126.826 30.4516 126.76 31.3489 126.324 31.5586C124.363 32.5013 122.882 35.3362 122.833 35.9431C122.785 36.55 122.657 38.9481 124.474 37.852C124.929 37.2963 125.427 36.7649 125.802 36.1586C126.142 35.6106 126.345 34.9768 126.604 34.3795C126.798 33.935 127.551 30.7669 127.75 29.6785C127.923 28.7295 128.048 27.7702 128.425 26.8627C128.692 26.2207 128.839 25.53 129.089 24.8796C129.295 24.3418 129.597 23.8404 129.816 23.3071C130.076 22.674 130.6 22.3305 131.108 21.9251C131.735 21.4263 132.429 21.1698 133.182 21.0259C134.063 20.8578 134.93 20.8936 135.735 21.3546C135.944 21.4749 136.086 21.4416 136.191 21.2095C136.511 20.4939 136.818 19.7706 137.174 19.0722C137.647 18.1437 138.923 15.743 139.105 15.491C139.309 15.2109 139.549 14.9506 139.806 14.7172C139.938 14.597 140.133 14.5298 140.312 14.478C140.892 14.3086 141.474 14.1813 142.08 14.3879C142.469 14.5202 142.874 14.6002 143.265 14.7274C143.489 14.8003 143.7 14.9167 143.913 15.0203C144.092 15.106 144.285 15.1757 144.437 15.2966C144.868 15.6394 145.29 15.9956 145.698 16.3665C145.841 16.4969 145.935 16.683 146.043 16.8493C146.283 17.2177 146.534 17.5809 146.75 17.9633C146.9 18.2294 147.007 18.521 147.12 18.8062C147.3 19.2628 147.496 19.715 147.636 20.1844C147.841 20.8737 148 21.5772 148.182 22.2736C148.229 22.4533 148.38 23.7445 148.45 24.0879C148.518 24.4224 148.697 26.064 148.626 26.5577C148.578 26.8915 148.541 27.233 148.559 27.5681C148.572 27.8386 148.255 31.0662 148.21 31.3322L148.212 31.3329ZM144.194 28.2556C144.194 28.1315 144.192 28.0074 144.194 27.8834C144.213 26.8173 144.243 25.7513 144.249 24.6852C144.255 23.5641 144.284 22.4399 144.215 21.3227C144.155 20.3436 144.012 19.3645 143.833 18.3995C143.657 17.4568 143.193 16.6568 142.354 16.1273C142.225 16.0455 142.064 15.9694 141.917 15.9681C141.339 15.963 140.81 16.1062 140.404 16.5583C140.242 16.7393 140.082 16.9267 139.898 17.0847C139.264 17.6314 137.163 21.2402 136.889 21.8106C136.764 22.0696 136.796 22.2538 136.946 22.484C137.274 22.9873 137.614 23.4906 137.868 24.0316C138.123 24.5727 138.346 25.1463 138.461 25.7295C138.596 26.4196 138.802 27.1141 138.69 27.838C138.676 27.9288 138.754 28.0337 138.777 28.0995C139.252 27.7222 139.689 27.3635 140.14 27.022C140.27 26.9235 140.443 26.8845 140.588 26.8033C141.149 26.4886 141.789 26.3601 142.367 26.5276C143.214 26.7732 143.787 27.4172 144.194 28.2543V28.2556ZM142.366 28.2728C142.338 28.2856 142.251 28.3042 142.189 28.3553C141.728 28.7378 141.47 29.22 141.368 29.8211C141.241 30.5738 141.557 31.2114 141.789 31.8758C141.817 31.9538 141.907 32.0095 141.968 32.0754C142.034 32.0127 142.12 31.9609 142.163 31.8854C142.65 31.0195 143.156 30.1645 143.094 29.1068C143.074 28.7506 142.732 28.2613 142.366 28.2728ZM134.488 29.4399C134.468 29.4355 134.447 29.431 134.426 29.4265C134.331 29.6535 134.213 29.8735 134.146 30.1089C134.057 30.4216 133.986 30.7426 133.945 31.0649C133.878 31.5861 133.83 32.1105 133.801 32.6349C133.789 32.8524 133.874 33.0762 133.86 33.293C133.844 33.5488 134.007 33.6441 134.184 33.6837C134.236 33.6952 134.373 33.4899 134.413 33.3652C134.768 32.2435 134.614 31.0976 134.551 29.9567C134.541 29.784 134.51 29.6126 134.488 29.4399ZM144.176 29.7591C144.14 29.7507 144.104 29.7418 144.067 29.7335C144.035 29.8077 144 29.8806 143.971 29.9554C143.838 30.2962 143.735 30.6525 143.569 30.9754C143.28 31.535 142.943 32.0683 142.645 32.6234C142.526 32.844 142.667 33.0237 143.012 33.1548C143.438 33.3173 143.789 33.2783 143.872 33.0596C143.88 33.0404 143.881 33.018 143.883 32.9969C143.98 31.9174 144.078 30.8379 144.176 29.7591Z" fill="#221815"/>
<path fill-rule="evenodd" clip-rule="evenodd" d="M202.927 29.0605C202.833 29.2152 203.477 35.359 203.489 35.4831C203.521 35.8521 203.5 36.2262 203.541 36.6009C203.55 36.7461 203.825 39.2146 204.057 39.4883C204.112 39.5522 204.046 39.7774 203.97 39.8784C203.824 40.0715 203.635 40.2327 203.455 40.397C203.396 40.4508 203.312 40.493 203.233 40.5058C202.941 40.5531 202.646 40.6177 202.352 40.6177C201.836 40.6177 201.318 40.5934 200.803 40.5467C200.141 40.4859 199.591 40.1342 199.024 39.8215C198.581 39.5778 198.327 39.1775 198.056 38.7887C197.713 38.2975 197.391 37.7923 197.06 37.2935C197.03 37.2494 196.65 36.081 196.538 35.5304C196.48 35.2452 196.515 34.9363 196.537 34.6402C196.578 34.0474 196.616 33.4526 196.697 32.8643C196.806 32.0668 196.964 31.2764 197.084 30.4802C197.187 29.7927 197.265 29.1014 197.356 28.412C197.373 28.2873 197.866 25.87 197.956 25.4166C198.078 24.7911 198.187 24.1631 198.314 23.4737C198.159 23.5134 198.078 23.5089 198.051 23.5447C197.856 23.8108 196.257 26.4257 196.138 26.7589C195.949 27.2897 193.533 27.2341 193.06 27.1311C192.756 27.0652 192.453 26.9527 192.176 26.8101C191.383 26.4008 190.785 25.7657 190.253 25.0655C190.005 24.7393 189.774 24.3991 189.539 24.0621C189.505 24.0122 189.486 23.947 189.473 23.8862C189.401 23.539 189.341 23.1885 189.26 22.8438C189.217 22.6622 189.257 22.5497 189.377 22.3936C189.542 22.1794 189.632 21.8993 189.721 21.6364C189.855 21.2387 189.91 20.8076 190.089 20.4335C190.332 19.9238 190.603 19.4052 190.969 18.9818C191.28 18.6218 191.497 18.201 191.824 17.8429C192.261 17.3645 193.534 16.1168 193.727 15.9512C193.942 15.767 194.944 14.9203 195.192 14.7509C195.449 14.575 195.641 14.3045 195.862 14.0755C195.898 14.0378 197.452 12.3412 197.676 12.1481C198.076 11.8015 199.065 10.4463 199.277 10.2097C199.453 10.014 199.435 9.88357 199.222 9.71858C198.632 9.26005 198.006 8.82902 197.496 8.29055C197.134 7.90877 196.662 7.65744 196.352 7.23473C196.217 7.05055 196.122 6.83631 196.024 6.62847C195.874 6.31128 195.735 5.98897 195.601 5.66474C195.577 5.60782 195.58 5.51829 195.611 5.46777C195.631 5.43387 195.724 5.42556 195.781 5.43515C196.258 5.51637 196.732 5.63852 197.212 5.682C197.848 5.73956 199.693 6.1239 199.964 6.24733C200.861 6.65341 201.667 7.20787 202.458 7.79366C202.832 8.06992 203.114 8.41334 203.444 8.71902C204.179 9.40074 204.909 10.0889 205.65 10.7648C206.04 11.1204 206.23 13.0114 206.075 13.2455C205.919 13.4834 205.339 13.7903 205.314 13.8076C204.559 14.3281 203.879 13.9099 203.192 13.6317C202.944 13.5313 201.874 13.5057 201.748 13.4993C201.077 13.4667 200.549 13.7948 200.025 14.142C199.778 14.3058 199.551 14.5047 199.29 14.6441C199.114 14.7387 198.9 14.7809 198.697 14.8033C198.449 14.8308 198.191 14.7854 197.945 14.8218C197.708 14.8564 196.539 15.0463 196.2 15.2637C196.1 15.3277 194.675 16.4392 194.513 16.5831C194.436 16.6508 192.558 17.7911 192.213 18.2157C191.709 18.8348 191.3 19.5209 191.108 20.305C190.997 20.7629 190.949 21.2367 190.872 21.7036C190.903 21.7241 190.934 21.7445 190.965 21.765C191.059 21.7209 191.172 21.6978 191.242 21.63C191.746 21.1479 192.22 20.6324 192.746 20.1758C193.102 19.8663 193.526 19.6354 193.918 19.3681C194.066 19.2677 194.224 19.1775 194.352 19.0554C194.981 18.4542 195.71 18.0092 196.488 17.6325C196.869 17.4477 197.245 17.2481 197.608 17.0301C198.474 16.5108 199.408 16.5952 200.355 16.656C200.904 16.6911 201.296 16.9738 201.683 17.2967C201.814 17.4067 201.89 17.5807 202.017 17.6971C202.266 17.9247 202.529 18.139 202.795 18.3462C202.978 18.4888 203.563 19.4864 203.581 19.7729C203.601 20.0741 203.492 20.3868 203.418 20.6893C203.332 21.0359 203.223 21.3768 203.122 21.7202C203.113 21.7503 203.024 22.4064 203.015 22.5286C203.413 22.4301 203.791 22.3751 204.116 22.1321C204.266 22.0201 204.433 21.9229 204.604 21.85C205.079 21.6479 205.568 21.4772 206.039 21.2668C206.639 20.9982 207.214 20.6695 207.824 20.4252C208.852 20.014 209.9 19.6514 210.937 19.2594C211.021 19.2274 211.128 19.1334 211.138 19.0554C211.175 18.8041 211.213 18.5412 211.177 18.2925C211.005 17.0985 211.014 15.9052 211.064 14.7029C211.105 13.7097 211.03 12.7121 211.023 11.7158C211.018 11.0679 211.059 10.4195 211.051 9.77165C211.044 9.23191 211.01 8.69216 210.959 8.15498C210.881 7.34025 210.812 6.52232 210.676 5.7159C210.583 5.15825 210.391 4.61594 210.228 4.07108C210.149 3.80569 210.239 3.77883 210.493 3.73342C211.132 3.61895 211.632 3.84086 212.135 4.19707C212.641 4.55519 213.193 4.84872 213.722 5.17487C213.792 5.21836 213.886 5.27783 213.9 5.34562C213.992 5.75107 214.363 5.93141 214.58 6.23198C214.721 6.42639 214.814 6.65725 214.919 6.87596C215.124 7.30507 215.292 7.75529 215.532 8.16329C215.8 8.6167 215.823 9.09697 215.83 9.59387C215.832 9.73328 215.875 9.87206 215.896 10.0121C215.921 10.1784 215.973 10.3479 215.96 10.5116C215.906 11.1562 215.91 11.7899 216.011 12.4371C216.088 12.9398 216.012 13.4661 216.001 13.9822C215.995 14.2668 215.923 14.5686 215.994 14.8308C216.054 15.0501 216.242 15.2925 216.441 15.4044C217.088 15.7683 217.759 16.0945 218.438 16.3963C218.637 16.4852 219.946 17.2692 220.187 17.4023C220.835 17.7585 224.152 19.3368 224.445 19.4199C224.562 19.4532 225.176 19.716 225.339 19.8439C225.457 19.9353 225.716 20.3325 225.769 20.3881C225.842 20.4636 225.939 20.5793 225.924 20.6586C225.91 20.7379 225.387 21.4094 225.376 21.4868C225.327 21.5232 224.842 21.3742 224.268 21.4267C223.692 21.4785 216.855 23.3324 216.113 24.4548C215.37 25.5771 215.341 29.079 215.32 29.6687C215.295 30.3152 215.405 32.5151 215.432 32.9672C215.455 33.358 215.417 33.7519 215.434 34.1433C215.438 34.2482 215.552 35.1889 215.565 35.3948C215.579 35.6007 215.718 37.2846 215.8 37.7827C215.86 38.1517 215.804 38.538 215.845 38.9115C215.92 39.6009 216.033 40.2858 216.121 40.9739C216.197 41.5603 216.282 42.1474 216.322 42.7364C216.351 43.1744 216.388 43.6342 216.288 44.0518C216.185 44.4771 216.149 44.8723 216.244 45.2918C216.258 45.3507 216.341 46.5427 216.464 46.982C216.343 47.0089 216.243 47.0307 216.113 47.0594C215.696 46.3406 215.268 45.6225 214.86 44.8941C214.26 43.8242 213.696 42.7364 213.375 41.5437C213.168 40.7743 212.98 40.0005 212.788 39.2274C212.55 38.2732 212.318 37.3178 212.084 36.3637C212.076 36.333 212.062 36.3029 212.058 36.2716C211.962 35.485 211.877 34.6971 211.77 33.9124C211.663 33.1265 211.534 32.3431 211.415 31.5584C211.197 30.1022 211.202 28.6333 211.171 27.1669C211.158 26.5818 211.066 26.5057 210.477 26.5012C210.25 26.4993 210.015 26.4315 209.8 26.3522C209.284 26.1616 208.779 25.939 208.265 25.7434C207.504 25.4537 206.733 25.1895 205.977 24.8864C205.749 24.795 205.526 24.6415 205.358 24.4624C204.866 23.9387 203.624 23.2742 203.018 23.2231C202.412 23.1719 201.349 23.7161 201.293 23.9329C201.213 24.2392 199.327 33.9233 199.257 34.534C199.223 34.8269 199.494 34.9497 199.803 34.8109C200.127 34.6651 200.324 34.401 200.502 34.1062C200.726 33.7372 200.986 33.3906 201.206 33.0197C201.329 32.8131 201.419 32.5835 201.498 32.3552C201.66 31.8839 201.809 31.4081 201.953 30.931C202.122 30.367 202.275 29.7978 202.444 29.2332C202.526 28.9614 202.769 29.111 202.937 29.0656L202.928 29.0598L202.927 29.0605ZM217.116 17.9516C217.163 17.8953 217.209 17.8384 217.255 17.7821C217.118 17.7047 216.969 17.6421 216.845 17.5468C216.328 17.1465 216.285 17.1644 216.097 17.7981C216.037 17.9976 216.109 18.0661 216.278 18.0539C216.558 18.0335 216.837 17.9874 217.117 17.9516H217.116Z" fill="#221815"/>
<path fill-rule="evenodd" clip-rule="evenodd" d="M179.238 41.5014C178.984 41.4592 178.835 41.2635 178.748 41.0147C178.944 40.9853 182.199 40.5101 182.567 40.3605C183.023 40.1757 183.462 39.9499 183.915 39.7574C184.342 39.5758 184.785 39.4294 185.21 39.2413C185.698 39.0252 186.186 38.802 186.652 38.5398C186.83 38.4394 186.989 38.2431 187.066 38.0531C187.103 37.9623 186.961 37.7142 186.844 37.6592C186.02 37.2761 185.179 36.9289 184.348 36.5612C184.089 36.4461 183.848 36.2881 183.587 36.1762C182.798 35.8385 181.987 35.5469 181.215 35.1754C180.464 34.8147 173.447 38.7962 173.119 39.2573C172.836 39.6551 171.642 39.7664 171.485 39.7485C171.402 39.7389 171.302 39.6954 171.25 39.6334C170.885 39.1991 170.531 38.756 170.172 38.3173C170.125 38.2603 170.057 38.2188 170.016 38.1587C169.895 37.986 169.457 37.6112 169.288 37.5057C168.986 37.3151 168.705 37.0894 168.396 36.9078C168.251 36.8221 168.065 36.8067 167.899 36.7556C167.582 36.6571 167.261 36.5695 166.952 36.4493C166.792 36.3872 166.766 36.2472 166.909 36.1212C167.217 35.8488 167.536 35.5878 167.835 35.3065C167.902 35.2431 167.927 35.1184 167.941 35.018C167.959 34.8921 167.31 33.6879 167.091 33.1379C167.078 33.1034 167.092 33.0548 167.101 33.0138C167.177 32.6186 167.121 32.5067 166.847 32.3647C166.696 32.0635 167.312 30.7858 167.721 30.5466C168.002 30.3822 168.213 30.0919 168.442 29.8451C168.735 29.5291 169.07 29.2599 169.315 28.8877C169.512 28.5884 169.84 28.3787 170.093 28.1126C170.368 27.8236 170.618 27.5109 170.89 27.2192C170.962 27.1419 172.246 25.8462 172.464 25.6154C172.774 25.2854 173.058 24.9285 173.34 24.5736C173.75 24.0582 174.148 23.5331 174.555 23.0151C174.639 22.9083 173.988 22.2605 173.984 22.1767C173.967 21.8519 173.293 21.1593 173.251 21.0154C173.171 20.7442 172.864 19.9052 172.748 19.7709C172.673 19.6826 172.829 19.0572 172.905 18.9012C173.19 18.3167 173.438 17.7136 173.734 17.1348C174.073 16.4742 174.441 15.829 174.809 15.1843C175.166 14.5602 175.54 13.9463 175.905 13.3272C176.019 13.1334 176.14 12.9422 176.235 12.7395C176.293 12.6174 176.339 12.4748 176.336 12.343C176.331 12.1313 176.28 11.9209 176.239 11.6523C175.859 11.6786 175.456 11.7675 175.087 11.9702C174.903 12.0719 174.018 12.4754 173.711 12.7549C173.235 13.1872 172.965 13.7659 172.595 14.273C172.387 14.5595 172.289 14.9241 172.114 15.2387C171.858 15.6992 171.54 16.1289 171.324 16.606C171.206 16.8669 171.145 17.2333 171.234 17.4917C171.438 18.0775 171.366 18.6198 171.218 19.1883C171.14 19.4914 171.135 19.8131 171.096 20.1265C171.089 20.1789 170.57 23.4487 170.537 23.5536C170.476 23.7448 170.385 23.9264 170.288 24.156C170.198 24.0889 169.53 24.2116 169.427 24.2909C168.994 24.6228 167.289 22.6193 167.17 22.3168C166.955 21.7649 166.29 19.8265 166.323 19.6328C166.353 19.4511 166.448 19.2804 166.507 19.1026C166.637 18.7061 166.771 18.3109 166.879 17.908C166.894 17.8517 167.043 17.1566 167.13 16.8573C167.142 16.817 167.263 15.2624 167.325 14.5289C167.392 13.7397 167.321 12.9601 167.197 12.1851C167.17 12.0162 167.046 11.8621 166.92 11.6076C167.402 11.6613 167.837 11.5948 168.199 11.8794C168.758 12.3181 169.333 12.7446 169.832 13.2454C170.133 13.5472 170.498 13.8369 170.601 14.3108C170.638 14.4834 170.781 14.6331 170.894 14.8243C170.999 14.7354 171.136 14.6606 171.211 14.5448C171.373 14.2986 171.501 14.0307 171.648 13.7742C171.678 13.7205 171.727 13.677 171.77 13.631C172.166 13.2121 172.576 12.8047 172.955 12.3712C173.317 11.9574 173.655 11.5366 174.151 11.2533C174.643 10.9719 175.079 10.594 175.563 10.2953C175.946 10.0593 176.38 9.90521 176.764 9.67051C177.397 9.28297 178.882 9.4518 178.931 9.48505C179.439 9.83167 179.996 10.129 180.438 10.5466C181.155 11.2226 181.728 12.0117 181.61 13.0893C181.592 13.2543 181.53 13.4161 181.473 13.5741C181.352 13.9085 181.22 14.2392 181.096 14.5723C181.066 14.6516 180.319 16.1826 179.891 16.8157C179.725 17.0626 179.006 17.9848 178.834 18.2118C178.624 18.4874 178.427 18.7758 178.258 19.0777C178.229 19.1288 178.34 19.3245 178.428 19.3654C179.068 19.6641 179.569 20.1335 180.046 20.6336C180.457 21.0633 180.509 21.5724 180.402 22.1352C180.241 22.987 179.942 23.7531 179.329 24.399C178.919 24.83 178.59 25.3365 178.217 25.8034C178.143 25.8961 178.035 25.9613 177.893 26.0809C178.258 26.1493 178.605 26.1474 178.887 26.2824C179.378 26.5183 179.851 26.8074 180.291 27.1297C181.032 27.6727 181.54 28.4356 182.056 29.1768C182.214 29.4038 182.249 29.7216 182.318 30.0037C182.362 30.1866 182.368 30.3797 182.384 30.569C182.435 31.1535 182.097 31.6159 181.889 32.1172C181.777 32.3865 181.637 32.6455 181.5 32.9038C181.365 33.1603 181.226 33.4161 181.071 33.661C180.915 33.9059 180.954 34.0569 181.228 34.1585C181.747 34.3504 182.265 34.5422 182.784 34.7303C183.431 34.9637 184.076 35.1984 184.726 35.4235C185.438 35.671 186.155 35.905 186.867 36.1538C187.046 36.2158 187.204 36.345 187.385 36.3866C187.599 36.4352 189.904 37.5518 190.553 38.0148C191.202 38.4784 192.577 39.9243 192.84 40.5159C192.977 40.8228 193.161 41.1132 193.349 41.3927C193.491 41.6024 193.569 41.8 193.464 42.0462C193.432 42.123 193.421 42.2106 193.407 42.2944C193.353 42.6269 193.053 42.8488 192.712 42.7951C192.402 42.7458 192.096 42.6704 191.784 42.6384C191.595 42.6192 191.399 42.6621 191.206 42.6736C191.144 42.6774 191.076 42.687 191.02 42.6678C190.625 42.5335 179.519 41.5455 179.236 41.4988L179.238 41.5014ZM173.13 37.5121C173.597 36.7888 174.065 36.0656 174.532 35.3423C174.511 35.309 174.49 35.2758 174.469 35.2431C173.973 35.3813 173.473 35.5053 172.983 35.662C172.704 35.7516 171.019 36.2964 170.525 36.6571C170.266 36.8464 170.239 36.9967 170.498 37.1265C170.885 37.3209 171.277 37.5102 171.681 37.6637C172.182 37.8536 173.007 37.6937 173.129 37.5121H173.13ZM169.966 34.3523C170.159 34.3408 170.288 34.3542 170.405 34.3223C170.832 34.2059 171.249 34.0511 171.679 33.9539C172.319 33.8094 172.964 33.6764 173.614 33.5855C174.232 33.4992 174.858 33.4743 175.48 33.418C175.536 33.4129 175.614 33.3892 175.637 33.3489C175.798 33.0656 175.941 32.7721 176.102 32.4894C176.363 32.0322 177.525 30.4929 177.447 29.9052C177.392 29.4882 177.684 29.0297 177.804 28.5852C177.867 28.3524 177.912 28.1114 177.934 27.8715C177.951 27.6874 177.85 27.5927 177.651 27.6522C177.406 27.7257 176.74 27.7795 176.313 28.1312C175.946 28.3716 174.873 29.5202 174.769 29.8636C174.729 29.9947 174.619 30.1066 174.532 30.2198C174.374 30.4251 174.206 30.6221 174.049 30.8273C173.961 30.9425 173.902 31.0844 173.8 31.1842C173.635 31.3473 173.484 31.5007 173.222 31.5749C172.998 31.6382 171.764 32.4517 171.527 32.6519C171.376 32.7804 171.259 32.9563 171.098 33.0663C170.626 33.3873 170.331 33.8516 169.966 34.3523Z" fill="#221815"/>
<path fill-rule="evenodd" clip-rule="evenodd" d="M163.899 36.2991C163.826 36.7615 163.78 37.2705 164.124 37.6926C164.169 37.7489 163.763 38.907 163.531 39.0369C163.362 39.1309 163.226 39.2895 163.09 39.434C162.893 39.6444 161.903 40.3939 161.558 40.6938C161.234 40.9758 160.876 41.0826 160.441 40.9234C159.712 40.6567 158.964 40.4137 158.364 39.9155C157.993 39.6073 157.717 39.1807 157.418 38.7919C157.048 38.3097 156.898 37.6702 156.37 37.3C156.158 37.1516 156.567 34.4388 156.595 34.3243C156.713 33.8517 156.816 33.3753 156.911 32.8976C156.971 32.5977 156.963 32.2773 157.062 31.9933C157.27 31.4018 157.243 30.7444 157.591 30.1918C157.695 30.0262 158.221 28.8322 158.281 28.7235C158.507 28.311 158.584 27.8736 158.539 27.4087C158.534 27.3582 158.545 27.3013 158.564 27.2539C158.702 26.9105 157.577 26.9214 157.165 27.0774C157.016 27.1337 155.923 27.5654 155.568 27.4989C155.428 27.4726 155.28 27.4183 155.165 27.3358C154.919 27.1586 154.698 26.9476 154.457 26.7641C154.369 26.6969 153.261 25.5906 153.041 25.2612C152.896 25.0444 152.711 24.8468 152.605 24.6128C152.427 24.2188 152.304 23.7999 152.139 23.399C152.104 23.3114 151.991 23.2512 151.906 23.1886C151.866 23.1592 151.802 23.1624 151.76 23.1349C151.364 22.8778 151.277 22.2702 151.506 21.8514C151.743 21.4203 152.123 21.1326 152.437 20.7802C152.817 20.3549 153.033 19.8503 153.228 19.3298C153.271 19.2153 153.361 19.1194 153.414 19.0075C153.778 18.2324 154.235 17.5149 154.746 16.8293C155.276 16.1195 156.665 14.3768 156.818 14.2048C157.183 13.7961 158.178 12.7441 158.325 12.6463C158.943 12.2351 160.489 9.56003 160.69 8.72483C160.814 8.21194 157.712 4.90633 157.566 4.7925C157.487 4.73174 157.439 4.6307 157.377 4.5482C157.474 4.54437 157.587 4.50536 157.666 4.54181C158.043 4.71703 158.408 4.92168 158.785 5.09818C159.051 5.22225 159.335 5.30474 159.6 5.42881C160.086 5.65583 160.564 5.89948 161.045 6.13738C161.063 6.14633 161.076 6.16872 161.095 6.17575C161.95 6.49167 162.54 7.21367 163.331 7.63447C163.652 7.80522 164.475 8.62826 164.624 8.75553C164.996 9.07144 165.24 9.48009 165.522 9.86891C165.753 10.1893 166.071 10.5327 166.196 10.8595C166.342 11.2387 166.506 12.2453 166.569 12.8337C166.618 13.2903 166.05 13.6049 165.704 13.5416C165.444 13.4943 164.593 13.3127 164.025 13.078C163.5 12.8605 162.843 12.8305 162.283 12.8529C161.858 12.8695 160.622 13.415 160.378 13.4834C160.061 13.5717 158.604 14.1191 158.136 14.3819C157.669 14.6441 157.385 14.9504 157.189 15.0982C157.115 15.1538 155.125 16.83 154.672 17.6287C154.22 18.4287 153.605 19.1891 153.664 20.1874C153.691 20.2078 153.72 20.2289 153.747 20.2494C153.986 20.0524 154.227 19.858 154.463 19.6572C155.061 19.1488 155.628 18.5988 156.262 18.1397C156.927 17.6581 157.651 17.2578 158.356 16.8319C158.706 16.6208 159.082 16.4507 159.424 16.2282C159.919 15.9065 161.864 15.9359 162.287 16.028C162.739 16.1265 163.111 16.3797 163.537 16.5128C163.604 16.5332 163.656 16.5965 163.718 16.633C163.924 16.7538 164.137 16.8638 164.338 16.993C164.442 17.0595 164.542 17.1452 164.613 17.2444C164.728 17.4055 164.811 17.589 164.924 17.7521C164.95 17.7892 165.499 18.6852 165.495 18.9378C165.481 19.8344 160.542 26.7896 160.366 27.2501C160.197 27.6939 159.999 28.1262 159.815 28.5636C159.75 28.7178 159.687 28.8732 159.624 29.0286C159.562 29.1833 158.868 31.8085 158.855 32.1283C158.828 32.8049 158.814 33.4821 158.815 34.1587C158.815 34.2943 158.91 34.4292 158.996 34.6569C159.13 34.4203 159.198 34.2233 159.329 34.0832C159.564 33.8313 160.737 32.017 160.883 31.8143C161.292 31.2451 162.292 29.615 162.416 29.3899C162.577 29.0944 162.687 28.7676 162.872 28.4901C163.044 28.233 164.145 26.4328 164.269 26.2205C164.428 25.9493 164.638 25.7076 164.836 25.4403C165.138 25.9423 163.959 35.9154 163.899 36.3004V36.2991Z" fill="#221815"/>
</svg>
