<svg width="15" height="11" viewBox="0 0 15 11" fill="none" xmlns="http://www.w3.org/2000/svg">
<path fill-rule="evenodd" clip-rule="evenodd" d="M13.3689 0.721627C14.0113 0.894661 14.518 1.40118 14.6909 2.04376C15.0122 3.21747 14.9999 5.66399 14.9999 5.66399C14.9999 5.66399 14.9999 8.09804 14.691 9.27186C14.518 9.91433 14.0115 10.421 13.3689 10.5939C12.1951 10.9029 7.49988 10.9029 7.49988 10.9029C7.49988 10.9029 2.81696 10.9029 1.63089 10.5816C0.988305 10.4086 0.481789 9.90197 0.308754 9.2595C-0.00012207 8.09804 -0.00012207 5.65163 -0.00012207 5.65163C-0.00012207 5.65163 -0.00012207 3.21747 0.308754 2.04376C0.481675 1.40129 1.00066 0.882302 1.63078 0.709381C2.8046 0.400391 7.49977 0.400391 7.49977 0.400391C7.49977 0.400391 12.1951 0.400391 13.3689 0.721627ZM9.90921 5.65173L6.00481 7.90051V3.40296L9.90921 5.65173Z" fill="white"/>
</svg>
